<?xml version="1.0" encoding="UTF-8" standalone="no"?>
<?xml-stylesheet href="styles.css" type="text/css"?>
<!DOCTYPE svg PUBLIC "-//W3C//DTD SVG 1.1//EN"
 "http://www.w3.org/Graphics/SVG/1.1/DTD/svg11.dtd">
<!-- Generated by graphviz version 12.2.1 (20241206.2353)
 -->
<!-- Title: MyFir Pages: 1 -->
<svg width="1764pt" height="334pt"
 viewBox="0.00 0.00 1764.00 334.00" xmlns="http://www.w3.org/2000/svg" xmlns:xlink="http://www.w3.org/1999/xlink">
<g id="graph0" class="graph" transform="scale(1 1) rotate(0) translate(4 330)">
<title>MyFir</title>
<polygon fill="white" stroke="none" points="-4,4 -4,-330 1760,-330 1760,4 -4,4"/>
<g id="clust1" class="cluster">
<title>cluster_MyFir</title>
<polygon fill="#fff8dc" stroke="black" points="8,-8 8,-318 1748,-318 1748,-8 8,-8"/>
<text text-anchor="middle" x="878" y="-300.7" font-family="Times New Roman,serif" font-size="14.00">MyFir</text>
</g>
<!-- cluster_MyFir_clock -->
<g id="node1" class="node">
<title>cluster_MyFir_clock</title>
<polygon fill="#cccccc" stroke="black" points="70,-68 16,-68 16,-32 70,-32 70,-68"/>
<text text-anchor="middle" x="43" y="-44.95" font-family="Times New Roman,serif" font-size="14.00">clock</text>
</g>
<!-- cluster_MyFir_reset -->
<g id="node2" class="node">
<title>cluster_MyFir_reset</title>
<polygon fill="#cccccc" stroke="black" points="70,-184 16,-184 16,-148 70,-148 70,-184"/>
<text text-anchor="middle" x="43" y="-160.95" font-family="Times New Roman,serif" font-size="14.00">reset</text>
</g>
<!-- cluster_MyFir_io_in -->
<g id="node3" class="node">
<title>cluster_MyFir_io_in</title>
<polygon fill="#cccccc" stroke="black" points="70,-269 16,-269 16,-233 70,-233 70,-269"/>
<text text-anchor="middle" x="43" y="-245.95" font-family="Times New Roman,serif" font-size="14.00">io_in</text>
</g>
<!-- struct_cluster_MyFir_REG -->
<g id="node5" class="node">
<title>struct_cluster_MyFir_REG</title>
<polygon fill="#ffe4b5" stroke="none" points="115.12,-174.75 115.12,-201.25 188.62,-201.25 188.62,-174.75 115.12,-174.75"/>
<polygon fill="none" stroke="black" points="115.12,-174.75 115.12,-201.25 133.38,-201.25 133.38,-174.75 115.12,-174.75"/>
<text text-anchor="start" x="120.12" y="-182.95" font-family="Times New Roman,serif" font-size="14.00">●</text>
<polygon fill="none" stroke="black" points="133.38,-174.75 133.38,-201.25 170.38,-201.25 170.38,-174.75 133.38,-174.75"/>
<text text-anchor="start" x="138.38" y="-182.95" font-family="Times New Roman,serif" font-size="14.00">REG</text>
<polygon fill="none" stroke="black" points="170.38,-174.75 170.38,-201.25 188.62,-201.25 188.62,-174.75 170.38,-174.75"/>
<text text-anchor="start" x="175.38" y="-182.95" font-family="Times New Roman,serif" font-size="14.00">●</text>
</g>
<!-- cluster_MyFir_io_in&#45;&gt;struct_cluster_MyFir_REG -->
<g id="edge37" class="edge">
<title>cluster_MyFir_io_in&#45;&gt;struct_cluster_MyFir_REG:in</title>
<path fill="none" stroke="black" d="M70.28,-236.45C86,-227.61 104.96,-216.66 115.71,-209.45"/>
<polygon fill="black" stroke="black" points="117.71,-212.35 123.09,-203.23 113.19,-207 117.71,-212.35"/>
</g>
<!-- op_mul_1 -->
<g id="node12" class="node">
<title>op_mul_1</title>
<polygon fill="#d8bfd8" stroke="none" points="114,-228.5 114,-281.5 189.75,-281.5 189.75,-228.5 114,-228.5"/>
<polygon fill="none" stroke="black" points="114,-255 114,-281.5 132.25,-281.5 132.25,-255 114,-255"/>
<text text-anchor="start" x="119" y="-263.2" font-family="Times New Roman,serif" font-size="14.00">●</text>
<polygon fill="none" stroke="black" points="132.25,-228.5 132.25,-281.5 171.5,-281.5 171.5,-228.5 132.25,-228.5"/>
<text text-anchor="start" x="137.25" y="-249.95" font-family="Times New Roman,serif" font-size="14.00"> mul </text>
<polygon fill="none" stroke="black" points="171.5,-228.5 171.5,-281.5 189.75,-281.5 189.75,-228.5 171.5,-228.5"/>
<text text-anchor="start" x="176.5" y="-249.95" font-family="Times New Roman,serif" font-size="14.00">●</text>
<polygon fill="none" stroke="black" points="114,-228.5 114,-255 132.25,-255 132.25,-228.5 114,-228.5"/>
<text text-anchor="start" x="119.75" y="-236.7" font-family="Times New Roman,serif" font-size="14.00">0</text>
</g>
<!-- cluster_MyFir_io_in&#45;&gt;op_mul_1 -->
<g id="edge21" class="edge">
<title>cluster_MyFir_io_in&#45;&gt;op_mul_1:in1</title>
<path fill="none" stroke="black" d="M70.49,-260.83C79.9,-263.71 90.87,-266.4 101.75,-267.6"/>
<polygon fill="black" stroke="black" points="101.3,-271.08 111.49,-268.16 101.71,-264.09 101.3,-271.08"/>
</g>
<!-- cluster_MyFir_io_out -->
<g id="node4" class="node">
<title>cluster_MyFir_io_out</title>
<polygon fill="#e0ffff" stroke="black" points="1740,-114 1686,-114 1686,-78 1740,-78 1740,-114"/>
<text text-anchor="middle" x="1713" y="-90.95" font-family="Times New Roman,serif" font-size="14.00">io_out</text>
</g>
<!-- struct_cluster_MyFir_REG_1 -->
<g id="node6" class="node">
<title>struct_cluster_MyFir_REG_1</title>
<polygon fill="#ffe4b5" stroke="none" points="245.5,-119.75 245.5,-146.25 332.5,-146.25 332.5,-119.75 245.5,-119.75"/>
<polygon fill="none" stroke="black" points="245.5,-119.75 245.5,-146.25 263.75,-146.25 263.75,-119.75 245.5,-119.75"/>
<text text-anchor="start" x="250.5" y="-127.95" font-family="Times New Roman,serif" font-size="14.00">●</text>
<polygon fill="none" stroke="black" points="263.75,-119.75 263.75,-146.25 314.25,-146.25 314.25,-119.75 263.75,-119.75"/>
<text text-anchor="start" x="268.75" y="-127.95" font-family="Times New Roman,serif" font-size="14.00">REG_1</text>
<polygon fill="none" stroke="black" points="314.25,-119.75 314.25,-146.25 332.5,-146.25 332.5,-119.75 314.25,-119.75"/>
<text text-anchor="start" x="319.25" y="-127.95" font-family="Times New Roman,serif" font-size="14.00">●</text>
</g>
<!-- struct_cluster_MyFir_REG&#45;&gt;struct_cluster_MyFir_REG_1 -->
<g id="edge10" class="edge">
<title>struct_cluster_MyFir_REG:out&#45;&gt;struct_cluster_MyFir_REG_1:in</title>
<path fill="none" stroke="black" d="M189.62,-188C219.7,-188 212.82,-146.27 233.37,-135.51"/>
<polygon fill="black" stroke="black" points="234.04,-138.94 243.02,-133.33 232.5,-132.11 234.04,-138.94"/>
</g>
<!-- op_mul_2 -->
<g id="node14" class="node">
<title>op_mul_2</title>
<polygon fill="#d8bfd8" stroke="none" points="241.75,-173.5 241.75,-226.5 336.25,-226.5 336.25,-173.5 241.75,-173.5"/>
<polygon fill="none" stroke="black" points="241.75,-200 241.75,-226.5 278.75,-226.5 278.75,-200 241.75,-200"/>
<text text-anchor="start" x="256.12" y="-208.2" font-family="Times New Roman,serif" font-size="14.00">●</text>
<polygon fill="none" stroke="black" points="278.75,-173.5 278.75,-226.5 318,-226.5 318,-173.5 278.75,-173.5"/>
<text text-anchor="start" x="283.75" y="-194.95" font-family="Times New Roman,serif" font-size="14.00"> mul </text>
<polygon fill="none" stroke="black" points="318,-173.5 318,-226.5 336.25,-226.5 336.25,-173.5 318,-173.5"/>
<text text-anchor="start" x="323" y="-194.95" font-family="Times New Roman,serif" font-size="14.00">●</text>
<polygon fill="none" stroke="black" points="241.75,-173.5 241.75,-200 278.75,-200 278.75,-173.5 241.75,-173.5"/>
<text text-anchor="start" x="246.75" y="-181.7" font-family="Times New Roman,serif" font-size="14.00">1365</text>
</g>
<!-- struct_cluster_MyFir_REG&#45;&gt;op_mul_2 -->
<g id="edge34" class="edge">
<title>struct_cluster_MyFir_REG:out&#45;&gt;op_mul_2:in1</title>
<path fill="none" stroke="black" d="M189.62,-188C210.61,-188 214.52,-205.32 229.64,-211.27"/>
<polygon fill="black" stroke="black" points="228.8,-214.67 239.26,-212.98 230.03,-207.78 228.8,-214.67"/>
</g>
<!-- struct_cluster_MyFir_REG_2 -->
<g id="node7" class="node">
<title>struct_cluster_MyFir_REG_2</title>
<polygon fill="#ffe4b5" stroke="none" points="392,-65.75 392,-92.25 479,-92.25 479,-65.75 392,-65.75"/>
<polygon fill="none" stroke="black" points="392,-65.75 392,-92.25 410.25,-92.25 410.25,-65.75 392,-65.75"/>
<text text-anchor="start" x="397" y="-73.95" font-family="Times New Roman,serif" font-size="14.00">●</text>
<polygon fill="none" stroke="black" points="410.25,-65.75 410.25,-92.25 460.75,-92.25 460.75,-65.75 410.25,-65.75"/>
<text text-anchor="start" x="415.25" y="-73.95" font-family="Times New Roman,serif" font-size="14.00">REG_2</text>
<polygon fill="none" stroke="black" points="460.75,-65.75 460.75,-92.25 479,-92.25 479,-65.75 460.75,-65.75"/>
<text text-anchor="start" x="465.75" y="-73.95" font-family="Times New Roman,serif" font-size="14.00">●</text>
</g>
<!-- struct_cluster_MyFir_REG_1&#45;&gt;struct_cluster_MyFir_REG_2 -->
<g id="edge29" class="edge">
<title>struct_cluster_MyFir_REG_1:out&#45;&gt;struct_cluster_MyFir_REG_2:in</title>
<path fill="none" stroke="black" d="M333.5,-133C364.18,-133 358.35,-91.66 379.9,-81.32"/>
<polygon fill="black" stroke="black" points="380.45,-84.78 389.52,-79.31 379.01,-77.93 380.45,-84.78"/>
</g>
<!-- op_mul_3 -->
<g id="node16" class="node">
<title>op_mul_3</title>
<polygon fill="#d8bfd8" stroke="none" points="388.25,-119.5 388.25,-172.5 482.75,-172.5 482.75,-119.5 388.25,-119.5"/>
<polygon fill="none" stroke="black" points="388.25,-146 388.25,-172.5 425.25,-172.5 425.25,-146 388.25,-146"/>
<text text-anchor="start" x="402.62" y="-154.2" font-family="Times New Roman,serif" font-size="14.00">●</text>
<polygon fill="none" stroke="black" points="425.25,-119.5 425.25,-172.5 464.5,-172.5 464.5,-119.5 425.25,-119.5"/>
<text text-anchor="start" x="430.25" y="-140.95" font-family="Times New Roman,serif" font-size="14.00"> mul </text>
<polygon fill="none" stroke="black" points="464.5,-119.5 464.5,-172.5 482.75,-172.5 482.75,-119.5 464.5,-119.5"/>
<text text-anchor="start" x="469.5" y="-140.95" font-family="Times New Roman,serif" font-size="14.00">●</text>
<polygon fill="none" stroke="black" points="388.25,-119.5 388.25,-146 425.25,-146 425.25,-119.5 388.25,-119.5"/>
<text text-anchor="start" x="393.25" y="-127.7" font-family="Times New Roman,serif" font-size="14.00">2731</text>
</g>
<!-- struct_cluster_MyFir_REG_1&#45;&gt;op_mul_3 -->
<g id="edge39" class="edge">
<title>struct_cluster_MyFir_REG_1:out&#45;&gt;op_mul_3:in1</title>
<path fill="none" stroke="black" d="M333.5,-133C355.72,-133 359.77,-151.34 376.04,-157.36"/>
<polygon fill="black" stroke="black" points="375.32,-160.79 385.76,-159 376.48,-153.89 375.32,-160.79"/>
</g>
<!-- struct_cluster_MyFir_REG_3 -->
<g id="node8" class="node">
<title>struct_cluster_MyFir_REG_3</title>
<polygon fill="#ffe4b5" stroke="none" points="538.5,-40.75 538.5,-67.25 625.5,-67.25 625.5,-40.75 538.5,-40.75"/>
<polygon fill="none" stroke="black" points="538.5,-40.75 538.5,-67.25 556.75,-67.25 556.75,-40.75 538.5,-40.75"/>
<text text-anchor="start" x="543.5" y="-48.95" font-family="Times New Roman,serif" font-size="14.00">●</text>
<polygon fill="none" stroke="black" points="556.75,-40.75 556.75,-67.25 607.25,-67.25 607.25,-40.75 556.75,-40.75"/>
<text text-anchor="start" x="561.75" y="-48.95" font-family="Times New Roman,serif" font-size="14.00">REG_3</text>
<polygon fill="none" stroke="black" points="607.25,-40.75 607.25,-67.25 625.5,-67.25 625.5,-40.75 607.25,-40.75"/>
<text text-anchor="start" x="612.25" y="-48.95" font-family="Times New Roman,serif" font-size="14.00">●</text>
</g>
<!-- struct_cluster_MyFir_REG_2&#45;&gt;struct_cluster_MyFir_REG_3 -->
<g id="edge13" class="edge">
<title>struct_cluster_MyFir_REG_2:out&#45;&gt;struct_cluster_MyFir_REG_3:in</title>
<path fill="none" stroke="black" d="M480,-79C503.51,-79 508.44,-61.2 526.15,-55.64"/>
<polygon fill="black" stroke="black" points="526.61,-59.11 536,-54.22 525.6,-52.18 526.61,-59.11"/>
</g>
<!-- op_mul_4 -->
<g id="node18" class="node">
<title>op_mul_4</title>
<polygon fill="#d8bfd8" stroke="none" points="534.75,-94.5 534.75,-147.5 629.25,-147.5 629.25,-94.5 534.75,-94.5"/>
<polygon fill="none" stroke="black" points="534.75,-121 534.75,-147.5 571.75,-147.5 571.75,-121 534.75,-121"/>
<text text-anchor="start" x="549.12" y="-129.2" font-family="Times New Roman,serif" font-size="14.00">●</text>
<polygon fill="none" stroke="black" points="571.75,-94.5 571.75,-147.5 611,-147.5 611,-94.5 571.75,-94.5"/>
<text text-anchor="start" x="576.75" y="-115.95" font-family="Times New Roman,serif" font-size="14.00"> mul </text>
<polygon fill="none" stroke="black" points="611,-94.5 611,-147.5 629.25,-147.5 629.25,-94.5 611,-94.5"/>
<text text-anchor="start" x="616" y="-115.95" font-family="Times New Roman,serif" font-size="14.00">●</text>
<polygon fill="none" stroke="black" points="534.75,-94.5 534.75,-121 571.75,-121 571.75,-94.5 534.75,-94.5"/>
<text text-anchor="start" x="539.75" y="-102.7" font-family="Times New Roman,serif" font-size="14.00">4096</text>
</g>
<!-- struct_cluster_MyFir_REG_2&#45;&gt;op_mul_4 -->
<g id="edge16" class="edge">
<title>struct_cluster_MyFir_REG_2:out&#45;&gt;op_mul_4:in1</title>
<path fill="none" stroke="black" d="M480,-79C509.84,-79 502.48,-120.92 522.74,-131.73"/>
<polygon fill="black" stroke="black" points="521.75,-135.1 532.27,-133.91 523.31,-128.27 521.75,-135.1"/>
</g>
<!-- struct_cluster_MyFir_REG_4 -->
<g id="node9" class="node">
<title>struct_cluster_MyFir_REG_4</title>
<polygon fill="#ffe4b5" stroke="none" points="685,-40.75 685,-67.25 772,-67.25 772,-40.75 685,-40.75"/>
<polygon fill="none" stroke="black" points="685,-40.75 685,-67.25 703.25,-67.25 703.25,-40.75 685,-40.75"/>
<text text-anchor="start" x="690" y="-48.95" font-family="Times New Roman,serif" font-size="14.00">●</text>
<polygon fill="none" stroke="black" points="703.25,-40.75 703.25,-67.25 753.75,-67.25 753.75,-40.75 703.25,-40.75"/>
<text text-anchor="start" x="708.25" y="-48.95" font-family="Times New Roman,serif" font-size="14.00">REG_4</text>
<polygon fill="none" stroke="black" points="753.75,-40.75 753.75,-67.25 772,-67.25 772,-40.75 753.75,-40.75"/>
<text text-anchor="start" x="758.75" y="-48.95" font-family="Times New Roman,serif" font-size="14.00">●</text>
</g>
<!-- struct_cluster_MyFir_REG_3&#45;&gt;struct_cluster_MyFir_REG_4 -->
<g id="edge27" class="edge">
<title>struct_cluster_MyFir_REG_3:out&#45;&gt;struct_cluster_MyFir_REG_4:in</title>
<path fill="none" stroke="black" d="M626.5,-54C647.86,-54 655.83,-54 672.8,-54"/>
<polygon fill="black" stroke="black" points="672.49,-57.5 682.49,-54 672.49,-50.5 672.49,-57.5"/>
</g>
<!-- op_mul_5 -->
<g id="node20" class="node">
<title>op_mul_5</title>
<polygon fill="#d8bfd8" stroke="none" points="681.25,-96.5 681.25,-149.5 775.75,-149.5 775.75,-96.5 681.25,-96.5"/>
<polygon fill="none" stroke="black" points="681.25,-123 681.25,-149.5 718.25,-149.5 718.25,-123 681.25,-123"/>
<text text-anchor="start" x="695.62" y="-131.2" font-family="Times New Roman,serif" font-size="14.00">●</text>
<polygon fill="none" stroke="black" points="718.25,-96.5 718.25,-149.5 757.5,-149.5 757.5,-96.5 718.25,-96.5"/>
<text text-anchor="start" x="723.25" y="-117.95" font-family="Times New Roman,serif" font-size="14.00"> mul </text>
<polygon fill="none" stroke="black" points="757.5,-96.5 757.5,-149.5 775.75,-149.5 775.75,-96.5 757.5,-96.5"/>
<text text-anchor="start" x="762.5" y="-117.95" font-family="Times New Roman,serif" font-size="14.00">●</text>
<polygon fill="none" stroke="black" points="681.25,-96.5 681.25,-123 718.25,-123 718.25,-96.5 681.25,-96.5"/>
<text text-anchor="start" x="686.25" y="-104.7" font-family="Times New Roman,serif" font-size="14.00">2731</text>
</g>
<!-- struct_cluster_MyFir_REG_3&#45;&gt;op_mul_5 -->
<g id="edge23" class="edge">
<title>struct_cluster_MyFir_REG_3:out&#45;&gt;op_mul_5:in1</title>
<path fill="none" stroke="black" d="M626.5,-54C665.73,-54 642.61,-120.39 669.17,-133.88"/>
<polygon fill="black" stroke="black" points="668.26,-137.26 678.77,-135.93 669.73,-130.42 668.26,-137.26"/>
</g>
<!-- struct_cluster_MyFir_REG_5 -->
<g id="node10" class="node">
<title>struct_cluster_MyFir_REG_5</title>
<polygon fill="#ffe4b5" stroke="none" points="831.5,-20.75 831.5,-47.25 918.5,-47.25 918.5,-20.75 831.5,-20.75"/>
<polygon fill="none" stroke="black" points="831.5,-20.75 831.5,-47.25 849.75,-47.25 849.75,-20.75 831.5,-20.75"/>
<text text-anchor="start" x="836.5" y="-28.95" font-family="Times New Roman,serif" font-size="14.00">●</text>
<polygon fill="none" stroke="black" points="849.75,-20.75 849.75,-47.25 900.25,-47.25 900.25,-20.75 849.75,-20.75"/>
<text text-anchor="start" x="854.75" y="-28.95" font-family="Times New Roman,serif" font-size="14.00">REG_5</text>
<polygon fill="none" stroke="black" points="900.25,-20.75 900.25,-47.25 918.5,-47.25 918.5,-20.75 900.25,-20.75"/>
<text text-anchor="start" x="905.25" y="-28.95" font-family="Times New Roman,serif" font-size="14.00">●</text>
</g>
<!-- struct_cluster_MyFir_REG_4&#45;&gt;struct_cluster_MyFir_REG_5 -->
<g id="edge9" class="edge">
<title>struct_cluster_MyFir_REG_4:out&#45;&gt;struct_cluster_MyFir_REG_5:in</title>
<path fill="none" stroke="black" d="M773,-54C795.83,-54 801.81,-39.76 819.37,-35.31"/>
<polygon fill="black" stroke="black" points="819.48,-38.82 829,-34.18 818.66,-31.87 819.48,-38.82"/>
</g>
<!-- op_mul_6 -->
<g id="node22" class="node">
<title>op_mul_6</title>
<polygon fill="#d8bfd8" stroke="none" points="827.75,-74.5 827.75,-127.5 922.25,-127.5 922.25,-74.5 827.75,-74.5"/>
<polygon fill="none" stroke="black" points="827.75,-101 827.75,-127.5 864.75,-127.5 864.75,-101 827.75,-101"/>
<text text-anchor="start" x="842.12" y="-109.2" font-family="Times New Roman,serif" font-size="14.00">●</text>
<polygon fill="none" stroke="black" points="864.75,-74.5 864.75,-127.5 904,-127.5 904,-74.5 864.75,-74.5"/>
<text text-anchor="start" x="869.75" y="-95.95" font-family="Times New Roman,serif" font-size="14.00"> mul </text>
<polygon fill="none" stroke="black" points="904,-74.5 904,-127.5 922.25,-127.5 922.25,-74.5 904,-74.5"/>
<text text-anchor="start" x="909" y="-95.95" font-family="Times New Roman,serif" font-size="14.00">●</text>
<polygon fill="none" stroke="black" points="827.75,-74.5 827.75,-101 864.75,-101 864.75,-74.5 827.75,-74.5"/>
<text text-anchor="start" x="832.75" y="-82.7" font-family="Times New Roman,serif" font-size="14.00">1365</text>
</g>
<!-- struct_cluster_MyFir_REG_4&#45;&gt;op_mul_6 -->
<g id="edge28" class="edge">
<title>struct_cluster_MyFir_REG_4:out&#45;&gt;op_mul_6:in1</title>
<path fill="none" stroke="black" d="M773,-54C804.4,-54 794.53,-100.13 815.61,-111.66"/>
<polygon fill="black" stroke="black" points="814.74,-115.05 825.28,-113.91 816.33,-108.23 814.74,-115.05"/>
</g>
<!-- op_mul_7 -->
<g id="node24" class="node">
<title>op_mul_7</title>
<polygon fill="#d8bfd8" stroke="none" points="974.25,-20.5 974.25,-73.5 1050,-73.5 1050,-20.5 974.25,-20.5"/>
<polygon fill="none" stroke="black" points="974.25,-47 974.25,-73.5 992.5,-73.5 992.5,-47 974.25,-47"/>
<text text-anchor="start" x="979.25" y="-55.2" font-family="Times New Roman,serif" font-size="14.00">●</text>
<polygon fill="none" stroke="black" points="992.5,-20.5 992.5,-73.5 1031.75,-73.5 1031.75,-20.5 992.5,-20.5"/>
<text text-anchor="start" x="997.5" y="-41.95" font-family="Times New Roman,serif" font-size="14.00"> mul </text>
<polygon fill="none" stroke="black" points="1031.75,-20.5 1031.75,-73.5 1050,-73.5 1050,-20.5 1031.75,-20.5"/>
<text text-anchor="start" x="1036.75" y="-41.95" font-family="Times New Roman,serif" font-size="14.00">●</text>
<polygon fill="none" stroke="black" points="974.25,-20.5 974.25,-47 992.5,-47 992.5,-20.5 974.25,-20.5"/>
<text text-anchor="start" x="980" y="-28.7" font-family="Times New Roman,serif" font-size="14.00">0</text>
</g>
<!-- struct_cluster_MyFir_REG_5&#45;&gt;op_mul_7 -->
<g id="edge1" class="edge">
<title>struct_cluster_MyFir_REG_5:out&#45;&gt;op_mul_7:in1</title>
<path fill="none" stroke="black" d="M919.5,-34C941.72,-34 945.77,-52.34 962.04,-58.36"/>
<polygon fill="black" stroke="black" points="961.32,-61.79 971.76,-60 962.48,-54.89 961.32,-61.79"/>
</g>
<!-- cluster_MyFir_mults_0 -->
<g id="node11" class="node">
<title>cluster_MyFir_mults_0</title>
<polygon fill="none" stroke="black" points="319.12,-285 258.88,-285 258.88,-249 319.12,-249 319.12,-285"/>
<text text-anchor="middle" x="289" y="-261.95" font-family="Times New Roman,serif" font-size="14.00">mults_0</text>
</g>
<!-- op_pad_9 -->
<g id="node27" class="node">
<title>op_pad_9</title>
<polygon fill="#d8bfd8" stroke="none" points="398.75,-253.75 398.75,-280.25 472.25,-280.25 472.25,-253.75 398.75,-253.75"/>
<polygon fill="none" stroke="black" points="398.75,-253.75 398.75,-280.25 417,-280.25 417,-253.75 398.75,-253.75"/>
<text text-anchor="start" x="403.75" y="-261.95" font-family="Times New Roman,serif" font-size="14.00">●</text>
<polygon fill="none" stroke="black" points="417,-253.75 417,-280.25 454,-280.25 454,-253.75 417,-253.75"/>
<text text-anchor="start" x="422" y="-261.95" font-family="Times New Roman,serif" font-size="14.00"> pad </text>
<polygon fill="none" stroke="black" points="454,-253.75 454,-280.25 472.25,-280.25 472.25,-253.75 454,-253.75"/>
<text text-anchor="start" x="459" y="-261.95" font-family="Times New Roman,serif" font-size="14.00">●</text>
</g>
<!-- cluster_MyFir_mults_0&#45;&gt;op_pad_9 -->
<g id="edge24" class="edge">
<title>cluster_MyFir_mults_0&#45;&gt;op_pad_9:in1</title>
<path fill="none" stroke="black" d="M319.27,-267C337.89,-267 362.85,-267 386.36,-267"/>
<polygon fill="black" stroke="black" points="386.24,-270.5 396.24,-267 386.24,-263.5 386.24,-270.5"/>
</g>
<!-- op_mul_1&#45;&gt;cluster_MyFir_mults_0 -->
<g id="edge4" class="edge">
<title>op_mul_1:out&#45;&gt;cluster_MyFir_mults_0</title>
<path fill="none" stroke="black" d="M190.75,-255C209.59,-255 230.33,-257.25 247.8,-259.79"/>
<polygon fill="black" stroke="black" points="246.84,-263.19 257.26,-261.26 247.91,-256.27 246.84,-263.19"/>
</g>
<!-- cluster_MyFir_mults_1 -->
<g id="node13" class="node">
<title>cluster_MyFir_mults_1</title>
<polygon fill="none" stroke="black" points="465.62,-231 405.38,-231 405.38,-195 465.62,-195 465.62,-231"/>
<text text-anchor="middle" x="435.5" y="-207.95" font-family="Times New Roman,serif" font-size="14.00">mults_1</text>
</g>
<!-- op_add_8 -->
<g id="node26" class="node">
<title>op_add_8</title>
<polygon fill="#d8bfd8" stroke="none" points="545.25,-228.5 545.25,-281.5 618.75,-281.5 618.75,-228.5 545.25,-228.5"/>
<polygon fill="none" stroke="black" points="545.25,-255 545.25,-281.5 563.5,-281.5 563.5,-255 545.25,-255"/>
<text text-anchor="start" x="550.25" y="-263.2" font-family="Times New Roman,serif" font-size="14.00">●</text>
<polygon fill="none" stroke="black" points="563.5,-228.5 563.5,-281.5 600.5,-281.5 600.5,-228.5 563.5,-228.5"/>
<text text-anchor="start" x="568.5" y="-249.95" font-family="Times New Roman,serif" font-size="14.00"> add </text>
<polygon fill="none" stroke="black" points="600.5,-228.5 600.5,-281.5 618.75,-281.5 618.75,-228.5 600.5,-228.5"/>
<text text-anchor="start" x="605.5" y="-249.95" font-family="Times New Roman,serif" font-size="14.00">●</text>
<polygon fill="none" stroke="black" points="545.25,-228.5 545.25,-255 563.5,-255 563.5,-228.5 545.25,-228.5"/>
<text text-anchor="start" x="550.25" y="-236.7" font-family="Times New Roman,serif" font-size="14.00">●</text>
</g>
<!-- cluster_MyFir_mults_1&#45;&gt;op_add_8 -->
<g id="edge26" class="edge">
<title>cluster_MyFir_mults_1&#45;&gt;op_add_8:in2</title>
<path fill="none" stroke="black" d="M466.12,-225.36C484.54,-232.09 509.18,-239.41 533.02,-241.29"/>
<polygon fill="black" stroke="black" points="532.6,-244.78 542.74,-241.69 532.89,-237.78 532.6,-244.78"/>
</g>
<!-- op_mul_2&#45;&gt;cluster_MyFir_mults_1 -->
<g id="edge33" class="edge">
<title>op_mul_2:out&#45;&gt;cluster_MyFir_mults_1</title>
<path fill="none" stroke="black" d="M337.25,-200C356.11,-200 376.86,-202.43 394.32,-205.19"/>
<polygon fill="black" stroke="black" points="393.34,-208.58 403.78,-206.78 394.5,-201.67 393.34,-208.58"/>
</g>
<!-- cluster_MyFir_mults_2 -->
<g id="node15" class="node">
<title>cluster_MyFir_mults_2</title>
<polygon fill="none" stroke="black" points="612.12,-206 551.88,-206 551.88,-170 612.12,-170 612.12,-206"/>
<text text-anchor="middle" x="582" y="-182.95" font-family="Times New Roman,serif" font-size="14.00">mults_2</text>
</g>
<!-- op_add_14 -->
<g id="node33" class="node">
<title>op_add_14</title>
<polygon fill="#d8bfd8" stroke="none" points="838.25,-228.5 838.25,-281.5 911.75,-281.5 911.75,-228.5 838.25,-228.5"/>
<polygon fill="none" stroke="black" points="838.25,-255 838.25,-281.5 856.5,-281.5 856.5,-255 838.25,-255"/>
<text text-anchor="start" x="843.25" y="-263.2" font-family="Times New Roman,serif" font-size="14.00">●</text>
<polygon fill="none" stroke="black" points="856.5,-228.5 856.5,-281.5 893.5,-281.5 893.5,-228.5 856.5,-228.5"/>
<text text-anchor="start" x="861.5" y="-249.95" font-family="Times New Roman,serif" font-size="14.00"> add </text>
<polygon fill="none" stroke="black" points="893.5,-228.5 893.5,-281.5 911.75,-281.5 911.75,-228.5 893.5,-228.5"/>
<text text-anchor="start" x="898.5" y="-249.95" font-family="Times New Roman,serif" font-size="14.00">●</text>
<polygon fill="none" stroke="black" points="838.25,-228.5 838.25,-255 856.5,-255 856.5,-228.5 838.25,-228.5"/>
<text text-anchor="start" x="843.25" y="-236.7" font-family="Times New Roman,serif" font-size="14.00">●</text>
</g>
<!-- cluster_MyFir_mults_2&#45;&gt;op_add_14 -->
<g id="edge35" class="edge">
<title>cluster_MyFir_mults_2&#45;&gt;op_add_14:in2</title>
<path fill="none" stroke="black" d="M612.29,-199.2C629.77,-205.52 652.52,-213.1 673.25,-218 705.8,-225.7 784.12,-239 825.82,-241.38"/>
<polygon fill="black" stroke="black" points="825.63,-244.88 835.74,-241.7 825.86,-237.88 825.63,-244.88"/>
</g>
<!-- op_mul_3&#45;&gt;cluster_MyFir_mults_2 -->
<g id="edge18" class="edge">
<title>op_mul_3:out&#45;&gt;cluster_MyFir_mults_2</title>
<path fill="none" stroke="black" d="M483.75,-146C490.04,-146 517.36,-157.99 541.45,-169.15"/>
<polygon fill="black" stroke="black" points="539.94,-172.31 550.48,-173.37 542.91,-165.97 539.94,-172.31"/>
</g>
<!-- cluster_MyFir_mults_3 -->
<g id="node17" class="node">
<title>cluster_MyFir_mults_3</title>
<polygon fill="none" stroke="black" points="758.62,-209 698.38,-209 698.38,-173 758.62,-173 758.62,-209"/>
<text text-anchor="middle" x="728.5" y="-185.95" font-family="Times New Roman,serif" font-size="14.00">mults_3</text>
</g>
<!-- op_add_13 -->
<g id="node32" class="node">
<title>op_add_13</title>
<polygon fill="#d8bfd8" stroke="none" points="975.38,-208.5 975.38,-261.5 1048.88,-261.5 1048.88,-208.5 975.38,-208.5"/>
<polygon fill="none" stroke="black" points="975.38,-235 975.38,-261.5 993.62,-261.5 993.62,-235 975.38,-235"/>
<text text-anchor="start" x="980.38" y="-243.2" font-family="Times New Roman,serif" font-size="14.00">●</text>
<polygon fill="none" stroke="black" points="993.62,-208.5 993.62,-261.5 1030.62,-261.5 1030.62,-208.5 993.62,-208.5"/>
<text text-anchor="start" x="998.62" y="-229.95" font-family="Times New Roman,serif" font-size="14.00"> add </text>
<polygon fill="none" stroke="black" points="1030.62,-208.5 1030.62,-261.5 1048.88,-261.5 1048.88,-208.5 1030.62,-208.5"/>
<text text-anchor="start" x="1035.62" y="-229.95" font-family="Times New Roman,serif" font-size="14.00">●</text>
<polygon fill="none" stroke="black" points="975.38,-208.5 975.38,-235 993.62,-235 993.62,-208.5 975.38,-208.5"/>
<text text-anchor="start" x="980.38" y="-216.7" font-family="Times New Roman,serif" font-size="14.00">●</text>
</g>
<!-- cluster_MyFir_mults_3&#45;&gt;op_add_13 -->
<g id="edge19" class="edge">
<title>cluster_MyFir_mults_3&#45;&gt;op_add_13:in2</title>
<path fill="none" stroke="black" d="M759.1,-194.63C798.26,-199.45 869.45,-208.25 930.25,-216 945.42,-217.93 951.69,-220.32 962.9,-221.3"/>
<polygon fill="black" stroke="black" points="962.73,-224.79 972.86,-221.69 963.01,-217.8 962.73,-224.79"/>
</g>
<!-- op_mul_4&#45;&gt;cluster_MyFir_mults_3 -->
<g id="edge6" class="edge">
<title>op_mul_4:out&#45;&gt;cluster_MyFir_mults_3</title>
<path fill="none" stroke="black" d="M620.12,-148.5C620.12,-155.98 656.59,-169.17 687.02,-178.88"/>
<polygon fill="black" stroke="black" points="685.84,-182.18 696.43,-181.83 687.93,-175.5 685.84,-182.18"/>
</g>
<!-- cluster_MyFir_mults_4 -->
<g id="node19" class="node">
<title>cluster_MyFir_mults_4</title>
<polygon fill="none" stroke="black" points="905.12,-186 844.88,-186 844.88,-150 905.12,-150 905.12,-186"/>
<text text-anchor="middle" x="875" y="-162.95" font-family="Times New Roman,serif" font-size="14.00">mults_4</text>
</g>
<!-- op_pad_15 -->
<g id="node34" class="node">
<title>op_pad_15</title>
<polygon fill="#d8bfd8" stroke="none" points="975.38,-154.75 975.38,-181.25 1048.88,-181.25 1048.88,-154.75 975.38,-154.75"/>
<polygon fill="none" stroke="black" points="975.38,-154.75 975.38,-181.25 993.62,-181.25 993.62,-154.75 975.38,-154.75"/>
<text text-anchor="start" x="980.38" y="-162.95" font-family="Times New Roman,serif" font-size="14.00">●</text>
<polygon fill="none" stroke="black" points="993.62,-154.75 993.62,-181.25 1030.62,-181.25 1030.62,-154.75 993.62,-154.75"/>
<text text-anchor="start" x="998.62" y="-162.95" font-family="Times New Roman,serif" font-size="14.00"> pad </text>
<polygon fill="none" stroke="black" points="1030.62,-154.75 1030.62,-181.25 1048.88,-181.25 1048.88,-154.75 1030.62,-154.75"/>
<text text-anchor="start" x="1035.62" y="-162.95" font-family="Times New Roman,serif" font-size="14.00">●</text>
</g>
<!-- cluster_MyFir_mults_4&#45;&gt;op_pad_15 -->
<g id="edge14" class="edge">
<title>cluster_MyFir_mults_4&#45;&gt;op_pad_15:in1</title>
<path fill="none" stroke="black" d="M905.27,-168C921.7,-168 942.89,-168 963.02,-168"/>
<polygon fill="black" stroke="black" points="962.86,-171.5 972.86,-168 962.86,-164.5 962.86,-171.5"/>
</g>
<!-- op_mul_5&#45;&gt;cluster_MyFir_mults_4 -->
<g id="edge31" class="edge">
<title>op_mul_5:out&#45;&gt;cluster_MyFir_mults_4</title>
<path fill="none" stroke="black" d="M776.75,-123C780.01,-123 808.86,-136.49 834.3,-148.7"/>
<polygon fill="black" stroke="black" points="832.65,-151.79 843.18,-152.98 835.69,-145.49 832.65,-151.79"/>
</g>
<!-- cluster_MyFir_mults_5 -->
<g id="node21" class="node">
<title>cluster_MyFir_mults_5</title>
<polygon fill="none" stroke="black" points="1042.25,-132 982,-132 982,-96 1042.25,-96 1042.25,-132"/>
<text text-anchor="middle" x="1012.12" y="-108.95" font-family="Times New Roman,serif" font-size="14.00">mults_5</text>
</g>
<!-- op_pad_16 -->
<g id="node35" class="node">
<title>op_pad_16</title>
<polygon fill="#d8bfd8" stroke="none" points="1102,-100.75 1102,-127.25 1175.5,-127.25 1175.5,-100.75 1102,-100.75"/>
<polygon fill="none" stroke="black" points="1102,-100.75 1102,-127.25 1120.25,-127.25 1120.25,-100.75 1102,-100.75"/>
<text text-anchor="start" x="1107" y="-108.95" font-family="Times New Roman,serif" font-size="14.00">●</text>
<polygon fill="none" stroke="black" points="1120.25,-100.75 1120.25,-127.25 1157.25,-127.25 1157.25,-100.75 1120.25,-100.75"/>
<text text-anchor="start" x="1125.25" y="-108.95" font-family="Times New Roman,serif" font-size="14.00"> pad </text>
<polygon fill="none" stroke="black" points="1157.25,-100.75 1157.25,-127.25 1175.5,-127.25 1175.5,-100.75 1157.25,-100.75"/>
<text text-anchor="start" x="1162.25" y="-108.95" font-family="Times New Roman,serif" font-size="14.00">●</text>
</g>
<!-- cluster_MyFir_mults_5&#45;&gt;op_pad_16 -->
<g id="edge17" class="edge">
<title>cluster_MyFir_mults_5&#45;&gt;op_pad_16:in1</title>
<path fill="none" stroke="black" d="M1042.42,-114C1056.3,-114 1073.41,-114 1089.81,-114"/>
<polygon fill="black" stroke="black" points="1089.49,-117.5 1099.49,-114 1089.49,-110.5 1089.49,-117.5"/>
</g>
<!-- op_mul_6&#45;&gt;cluster_MyFir_mults_5 -->
<g id="edge20" class="edge">
<title>op_mul_6:out&#45;&gt;cluster_MyFir_mults_5</title>
<path fill="none" stroke="black" d="M923.25,-101C938.7,-101 955.53,-102.99 970.27,-105.42"/>
<polygon fill="black" stroke="black" points="969.64,-108.86 980.1,-107.16 970.87,-101.97 969.64,-108.86"/>
</g>
<!-- cluster_MyFir_mults_6 -->
<g id="node23" class="node">
<title>cluster_MyFir_mults_6</title>
<polygon fill="none" stroke="black" points="1168.88,-68 1108.62,-68 1108.62,-32 1168.88,-32 1168.88,-68"/>
<text text-anchor="middle" x="1138.75" y="-44.95" font-family="Times New Roman,serif" font-size="14.00">mults_6</text>
</g>
<!-- op_pad_17 -->
<g id="node36" class="node">
<title>op_pad_17</title>
<polygon fill="#d8bfd8" stroke="none" points="1227.5,-42.75 1227.5,-69.25 1301,-69.25 1301,-42.75 1227.5,-42.75"/>
<polygon fill="none" stroke="black" points="1227.5,-42.75 1227.5,-69.25 1245.75,-69.25 1245.75,-42.75 1227.5,-42.75"/>
<text text-anchor="start" x="1232.5" y="-50.95" font-family="Times New Roman,serif" font-size="14.00">●</text>
<polygon fill="none" stroke="black" points="1245.75,-42.75 1245.75,-69.25 1282.75,-69.25 1282.75,-42.75 1245.75,-42.75"/>
<text text-anchor="start" x="1250.75" y="-50.95" font-family="Times New Roman,serif" font-size="14.00"> pad </text>
<polygon fill="none" stroke="black" points="1282.75,-42.75 1282.75,-69.25 1301,-69.25 1301,-42.75 1282.75,-42.75"/>
<text text-anchor="start" x="1287.75" y="-50.95" font-family="Times New Roman,serif" font-size="14.00">●</text>
</g>
<!-- cluster_MyFir_mults_6&#45;&gt;op_pad_17 -->
<g id="edge25" class="edge">
<title>cluster_MyFir_mults_6&#45;&gt;op_pad_17:in1</title>
<path fill="none" stroke="black" d="M1169.03,-53.04C1182.55,-54.23 1199.11,-55.42 1215.05,-55.84"/>
<polygon fill="black" stroke="black" points="1214.94,-59.34 1224.99,-55.98 1215.04,-52.34 1214.94,-59.34"/>
</g>
<!-- op_mul_7&#45;&gt;cluster_MyFir_mults_6 -->
<g id="edge7" class="edge">
<title>op_mul_7:out&#45;&gt;cluster_MyFir_mults_6</title>
<path fill="none" stroke="black" d="M1051,-47C1066.1,-47 1082.67,-47.46 1097.25,-48.02"/>
<polygon fill="black" stroke="black" points="1096.8,-51.5 1106.93,-48.42 1097.09,-44.51 1096.8,-51.5"/>
</g>
<!-- cluster_MyFir__T -->
<g id="node25" class="node">
<title>cluster_MyFir__T</title>
<polygon fill="none" stroke="black" points="755.5,-284 701.5,-284 701.5,-248 755.5,-248 755.5,-284"/>
<text text-anchor="middle" x="728.5" y="-260.95" font-family="Times New Roman,serif" font-size="14.00">_T</text>
</g>
<!-- cluster_MyFir__T&#45;&gt;op_add_14 -->
<g id="edge11" class="edge">
<title>cluster_MyFir__T&#45;&gt;op_add_14:in1</title>
<path fill="none" stroke="black" d="M755.62,-266.85C774.55,-267.4 801.07,-268.05 825.96,-268.21"/>
<polygon fill="black" stroke="black" points="825.72,-271.71 835.74,-268.24 825.75,-264.71 825.72,-271.71"/>
</g>
<!-- op_add_8&#45;&gt;cluster_MyFir__T -->
<g id="edge3" class="edge">
<title>op_add_8:out&#45;&gt;cluster_MyFir__T</title>
<path fill="none" stroke="black" d="M619.75,-255C643.12,-255 669.2,-257.59 689.85,-260.26"/>
<polygon fill="black" stroke="black" points="689.13,-263.7 699.51,-261.57 690.07,-256.76 689.13,-263.7"/>
</g>
<!-- op_pad_9&#45;&gt;op_add_8 -->
<g id="edge2" class="edge">
<title>op_pad_9:out&#45;&gt;op_add_8:in1</title>
<path fill="none" stroke="black" d="M473.25,-267C500.62,-267 510.18,-267.94 532.82,-268.19"/>
<polygon fill="black" stroke="black" points="532.72,-271.69 542.74,-268.24 532.76,-264.69 532.72,-271.69"/>
</g>
<!-- cluster_MyFir_result -->
<g id="node28" class="node">
<title>cluster_MyFir_result</title>
<polygon fill="none" stroke="black" points="1524.5,-114 1470.5,-114 1470.5,-78 1524.5,-78 1524.5,-114"/>
<text text-anchor="middle" x="1497.5" y="-90.95" font-family="Times New Roman,serif" font-size="14.00">result</text>
</g>
<!-- op_pad_18 -->
<g id="node37" class="node">
<title>op_pad_18</title>
<polygon fill="#d8bfd8" stroke="none" points="1568.5,-82.75 1568.5,-109.25 1642,-109.25 1642,-82.75 1568.5,-82.75"/>
<polygon fill="none" stroke="black" points="1568.5,-82.75 1568.5,-109.25 1586.75,-109.25 1586.75,-82.75 1568.5,-82.75"/>
<text text-anchor="start" x="1573.5" y="-90.95" font-family="Times New Roman,serif" font-size="14.00">●</text>
<polygon fill="none" stroke="black" points="1586.75,-82.75 1586.75,-109.25 1623.75,-109.25 1623.75,-82.75 1586.75,-82.75"/>
<text text-anchor="start" x="1591.75" y="-90.95" font-family="Times New Roman,serif" font-size="14.00"> pad </text>
<polygon fill="none" stroke="black" points="1623.75,-82.75 1623.75,-109.25 1642,-109.25 1642,-82.75 1623.75,-82.75"/>
<text text-anchor="start" x="1628.75" y="-90.95" font-family="Times New Roman,serif" font-size="14.00">●</text>
</g>
<!-- cluster_MyFir_result&#45;&gt;op_pad_18 -->
<g id="edge38" class="edge">
<title>cluster_MyFir_result&#45;&gt;op_pad_18:in1</title>
<path fill="none" stroke="black" d="M1524.71,-96C1534.28,-96 1545.43,-96 1556.32,-96"/>
<polygon fill="black" stroke="black" points="1555.99,-99.5 1565.99,-96 1555.99,-92.5 1555.99,-99.5"/>
</g>
<!-- op_add_10 -->
<g id="node29" class="node">
<title>op_add_10</title>
<polygon fill="#d8bfd8" stroke="none" points="1353,-69.5 1353,-122.5 1426.5,-122.5 1426.5,-69.5 1353,-69.5"/>
<polygon fill="none" stroke="black" points="1353,-96 1353,-122.5 1371.25,-122.5 1371.25,-96 1353,-96"/>
<text text-anchor="start" x="1358" y="-104.2" font-family="Times New Roman,serif" font-size="14.00">●</text>
<polygon fill="none" stroke="black" points="1371.25,-69.5 1371.25,-122.5 1408.25,-122.5 1408.25,-69.5 1371.25,-69.5"/>
<text text-anchor="start" x="1376.25" y="-90.95" font-family="Times New Roman,serif" font-size="14.00"> add </text>
<polygon fill="none" stroke="black" points="1408.25,-69.5 1408.25,-122.5 1426.5,-122.5 1426.5,-69.5 1408.25,-69.5"/>
<text text-anchor="start" x="1413.25" y="-90.95" font-family="Times New Roman,serif" font-size="14.00">●</text>
<polygon fill="none" stroke="black" points="1353,-69.5 1353,-96 1371.25,-96 1371.25,-69.5 1353,-69.5"/>
<text text-anchor="start" x="1358" y="-77.7" font-family="Times New Roman,serif" font-size="14.00">●</text>
</g>
<!-- op_add_10&#45;&gt;cluster_MyFir_result -->
<g id="edge40" class="edge">
<title>op_add_10:out&#45;&gt;cluster_MyFir_result</title>
<path fill="none" stroke="black" d="M1427.5,-96C1437.66,-96 1448.66,-96 1458.83,-96"/>
<polygon fill="black" stroke="black" points="1458.77,-99.5 1468.77,-96 1458.77,-92.5 1458.77,-99.5"/>
</g>
<!-- op_add_11 -->
<g id="node30" class="node">
<title>op_add_11</title>
<polygon fill="#d8bfd8" stroke="none" points="1227.5,-100.5 1227.5,-153.5 1301,-153.5 1301,-100.5 1227.5,-100.5"/>
<polygon fill="none" stroke="black" points="1227.5,-127 1227.5,-153.5 1245.75,-153.5 1245.75,-127 1227.5,-127"/>
<text text-anchor="start" x="1232.5" y="-135.2" font-family="Times New Roman,serif" font-size="14.00">●</text>
<polygon fill="none" stroke="black" points="1245.75,-100.5 1245.75,-153.5 1282.75,-153.5 1282.75,-100.5 1245.75,-100.5"/>
<text text-anchor="start" x="1250.75" y="-121.95" font-family="Times New Roman,serif" font-size="14.00"> add </text>
<polygon fill="none" stroke="black" points="1282.75,-100.5 1282.75,-153.5 1301,-153.5 1301,-100.5 1282.75,-100.5"/>
<text text-anchor="start" x="1287.75" y="-121.95" font-family="Times New Roman,serif" font-size="14.00">●</text>
<polygon fill="none" stroke="black" points="1227.5,-100.5 1227.5,-127 1245.75,-127 1245.75,-100.5 1227.5,-100.5"/>
<text text-anchor="start" x="1232.5" y="-108.7" font-family="Times New Roman,serif" font-size="14.00">●</text>
</g>
<!-- op_add_11&#45;&gt;op_add_10 -->
<g id="edge8" class="edge">
<title>op_add_11:out&#45;&gt;op_add_10:in1</title>
<path fill="none" stroke="black" d="M1302,-127C1321.16,-127 1326.63,-115.28 1340.65,-110.89"/>
<polygon fill="black" stroke="black" points="1341.1,-114.36 1350.5,-109.47 1340.1,-107.43 1341.1,-114.36"/>
</g>
<!-- op_add_12 -->
<g id="node31" class="node">
<title>op_add_12</title>
<polygon fill="#d8bfd8" stroke="none" points="1102,-154.5 1102,-207.5 1175.5,-207.5 1175.5,-154.5 1102,-154.5"/>
<polygon fill="none" stroke="black" points="1102,-181 1102,-207.5 1120.25,-207.5 1120.25,-181 1102,-181"/>
<text text-anchor="start" x="1107" y="-189.2" font-family="Times New Roman,serif" font-size="14.00">●</text>
<polygon fill="none" stroke="black" points="1120.25,-154.5 1120.25,-207.5 1157.25,-207.5 1157.25,-154.5 1120.25,-154.5"/>
<text text-anchor="start" x="1125.25" y="-175.95" font-family="Times New Roman,serif" font-size="14.00"> add </text>
<polygon fill="none" stroke="black" points="1157.25,-154.5 1157.25,-207.5 1175.5,-207.5 1175.5,-154.5 1157.25,-154.5"/>
<text text-anchor="start" x="1162.25" y="-175.95" font-family="Times New Roman,serif" font-size="14.00">●</text>
<polygon fill="none" stroke="black" points="1102,-154.5 1102,-181 1120.25,-181 1120.25,-154.5 1102,-154.5"/>
<text text-anchor="start" x="1107" y="-162.7" font-family="Times New Roman,serif" font-size="14.00">●</text>
</g>
<!-- op_add_12&#45;&gt;op_add_11 -->
<g id="edge15" class="edge">
<title>op_add_12:out&#45;&gt;op_add_11:in1</title>
<path fill="none" stroke="black" d="M1166.38,-153.5C1166.38,-142.54 1196.16,-140.64 1215.05,-140.31"/>
<polygon fill="black" stroke="black" points="1215.01,-143.81 1224.99,-140.26 1214.97,-136.81 1215.01,-143.81"/>
</g>
<!-- op_add_13&#45;&gt;op_add_12 -->
<g id="edge22" class="edge">
<title>op_add_13:out&#45;&gt;op_add_12:in1</title>
<path fill="none" stroke="black" d="M1039.75,-207.5C1039.75,-196.29 1070.39,-194.54 1089.62,-194.29"/>
<polygon fill="black" stroke="black" points="1089.5,-197.79 1099.49,-194.25 1089.48,-190.79 1089.5,-197.79"/>
</g>
<!-- op_add_14&#45;&gt;op_add_13 -->
<g id="edge36" class="edge">
<title>op_add_14:out&#45;&gt;op_add_13:in1</title>
<path fill="none" stroke="black" d="M912.75,-255C936.11,-255 944.35,-250.15 963.1,-248.67"/>
<polygon fill="black" stroke="black" points="963,-252.18 972.86,-248.31 962.74,-245.18 963,-252.18"/>
</g>
<!-- op_pad_15&#45;&gt;op_add_12 -->
<g id="edge12" class="edge">
<title>op_pad_15:out&#45;&gt;op_add_12:in2</title>
<path fill="none" stroke="black" d="M1049.88,-168C1068.34,-168 1075.55,-167.83 1089.79,-167.77"/>
<polygon fill="black" stroke="black" points="1089.49,-171.27 1099.49,-167.75 1089.48,-164.27 1089.49,-171.27"/>
</g>
<!-- op_pad_16&#45;&gt;op_add_11 -->
<g id="edge5" class="edge">
<title>op_pad_16:out&#45;&gt;op_add_11:in2</title>
<path fill="none" stroke="black" d="M1176.5,-114C1194.38,-114 1201.47,-113.84 1215.14,-113.77"/>
<polygon fill="black" stroke="black" points="1214.99,-117.28 1224.99,-113.75 1214.98,-110.28 1214.99,-117.28"/>
</g>
<!-- op_pad_17&#45;&gt;op_add_10 -->
<g id="edge32" class="edge">
<title>op_pad_17:out&#45;&gt;op_add_10:in2</title>
<path fill="none" stroke="black" d="M1302,-56C1322.87,-56 1326.18,-74.34 1341.01,-80.65"/>
<polygon fill="black" stroke="black" points="1340.03,-84.03 1350.51,-82.47 1341.35,-77.15 1340.03,-84.03"/>
</g>
<!-- op_pad_18&#45;&gt;cluster_MyFir_io_out -->
<g id="edge30" class="edge">
<title>op_pad_18:out&#45;&gt;cluster_MyFir_io_out</title>
<path fill="none" stroke="black" d="M1643,-96C1653.16,-96 1664.16,-96 1674.33,-96"/>
<polygon fill="black" stroke="black" points="1674.27,-99.5 1684.27,-96 1674.27,-92.5 1674.27,-99.5"/>
</g>
</g>
</svg>
