<?xml version="1.0" encoding="UTF-8" standalone="no"?>
<?xml-stylesheet href="styles.css" type="text/css"?>
<!DOCTYPE svg PUBLIC "-//W3C//DTD SVG 1.1//EN"
 "http://www.w3.org/Graphics/SVG/1.1/DTD/svg11.dtd">
<!-- Generated by graphviz version 12.2.1 (20241206.2353)
 -->
<!-- Title: ShiftRegister Pages: 1 -->
<svg width="598pt" height="209pt"
 viewBox="0.00 0.00 597.50 209.00" xmlns="http://www.w3.org/2000/svg" xmlns:xlink="http://www.w3.org/1999/xlink">
<g id="graph0" class="graph" transform="scale(1 1) rotate(0) translate(4 205)">
<title>ShiftRegister</title>
<polygon fill="white" stroke="none" points="-4,4 -4,-205 593.5,-205 593.5,4 -4,4"/>
<g id="clust1" class="cluster">
<title>cluster_ShiftRegister</title>
<polygon fill="#fff8dc" stroke="black" points="8,-8 8,-193 581.5,-193 581.5,-8 8,-8"/>
<text text-anchor="middle" x="294.75" y="-175.7" font-family="Times New Roman,serif" font-size="14.00">ShiftRegister</text>
</g>
<!-- cluster_ShiftRegister_clock -->
<g id="node1" class="node">
<title>cluster_ShiftRegister_clock</title>
<polygon fill="#cccccc" stroke="black" points="70,-52 16,-52 16,-16 70,-16 70,-52"/>
<text text-anchor="middle" x="43" y="-28.95" font-family="Times New Roman,serif" font-size="14.00">clock</text>
</g>
<!-- cluster_ShiftRegister_reset -->
<g id="node2" class="node">
<title>cluster_ShiftRegister_reset</title>
<polygon fill="#cccccc" stroke="black" points="70,-106 16,-106 16,-70 70,-70 70,-106"/>
<text text-anchor="middle" x="43" y="-82.95" font-family="Times New Roman,serif" font-size="14.00">reset</text>
</g>
<!-- cluster_ShiftRegister_io_in -->
<g id="node3" class="node">
<title>cluster_ShiftRegister_io_in</title>
<polygon fill="#cccccc" stroke="black" points="70,-160 16,-160 16,-124 70,-124 70,-160"/>
<text text-anchor="middle" x="43" y="-136.95" font-family="Times New Roman,serif" font-size="14.00">io_in</text>
</g>
<!-- cluster_ShiftRegister_io_out_0 -->
<g id="node4" class="node">
<title>cluster_ShiftRegister_io_out_0</title>
<polygon fill="#e0ffff" stroke="black" points="182.75,-106 118.75,-106 118.75,-70 182.75,-70 182.75,-106"/>
<text text-anchor="middle" x="150.75" y="-82.95" font-family="Times New Roman,serif" font-size="14.00">io_out_0</text>
</g>
<!-- cluster_ShiftRegister_io_in&#45;&gt;cluster_ShiftRegister_io_out_0 -->
<g id="edge3" class="edge">
<title>cluster_ShiftRegister_io_in&#45;&gt;cluster_ShiftRegister_io_out_0</title>
<path fill="none" stroke="black" d="M70.41,-128.51C81.9,-122.65 95.64,-115.63 108.42,-109.1"/>
<polygon fill="black" stroke="black" points="109.75,-112.35 117.07,-104.69 106.57,-106.12 109.75,-112.35"/>
</g>
<!-- struct_cluster_ShiftRegister_REG -->
<g id="node8" class="node">
<title>struct_cluster_ShiftRegister_REG</title>
<polygon fill="#ffe4b5" stroke="none" points="114,-128.75 114,-155.25 187.5,-155.25 187.5,-128.75 114,-128.75"/>
<polygon fill="none" stroke="black" points="114,-128.75 114,-155.25 132.25,-155.25 132.25,-128.75 114,-128.75"/>
<text text-anchor="start" x="119" y="-136.95" font-family="Times New Roman,serif" font-size="14.00">●</text>
<polygon fill="none" stroke="black" points="132.25,-128.75 132.25,-155.25 169.25,-155.25 169.25,-128.75 132.25,-128.75"/>
<text text-anchor="start" x="137.25" y="-136.95" font-family="Times New Roman,serif" font-size="14.00">REG</text>
<polygon fill="none" stroke="black" points="169.25,-128.75 169.25,-155.25 187.5,-155.25 187.5,-128.75 169.25,-128.75"/>
<text text-anchor="start" x="174.25" y="-136.95" font-family="Times New Roman,serif" font-size="14.00">●</text>
</g>
<!-- cluster_ShiftRegister_io_in&#45;&gt;struct_cluster_ShiftRegister_REG -->
<g id="edge2" class="edge">
<title>cluster_ShiftRegister_io_in&#45;&gt;struct_cluster_ShiftRegister_REG:in</title>
<path fill="none" stroke="black" d="M70.21,-142C79.78,-142 90.93,-142 101.82,-142"/>
<polygon fill="black" stroke="black" points="101.49,-145.5 111.49,-142 101.49,-138.5 101.49,-145.5"/>
</g>
<!-- cluster_ShiftRegister_io_out_1 -->
<g id="node5" class="node">
<title>cluster_ShiftRegister_io_out_1</title>
<polygon fill="#e0ffff" stroke="black" points="315,-106 251,-106 251,-70 315,-70 315,-106"/>
<text text-anchor="middle" x="283" y="-82.95" font-family="Times New Roman,serif" font-size="14.00">io_out_1</text>
</g>
<!-- cluster_ShiftRegister_io_out_2 -->
<g id="node6" class="node">
<title>cluster_ShiftRegister_io_out_2</title>
<polygon fill="#e0ffff" stroke="black" points="454,-106 390,-106 390,-70 454,-70 454,-106"/>
<text text-anchor="middle" x="422" y="-82.95" font-family="Times New Roman,serif" font-size="14.00">io_out_2</text>
</g>
<!-- cluster_ShiftRegister_io_out_3 -->
<g id="node7" class="node">
<title>cluster_ShiftRegister_io_out_3</title>
<polygon fill="#e0ffff" stroke="black" points="573.5,-160 509.5,-160 509.5,-124 573.5,-124 573.5,-160"/>
<text text-anchor="middle" x="541.5" y="-136.95" font-family="Times New Roman,serif" font-size="14.00">io_out_3</text>
</g>
<!-- struct_cluster_ShiftRegister_REG&#45;&gt;cluster_ShiftRegister_io_out_1 -->
<g id="edge6" class="edge">
<title>struct_cluster_ShiftRegister_REG:out&#45;&gt;cluster_ShiftRegister_io_out_1</title>
<path fill="none" stroke="black" d="M188.5,-142C211.07,-142 211.98,-126.33 231.5,-115 234.46,-113.28 237.53,-111.54 240.64,-109.81"/>
<polygon fill="black" stroke="black" points="242.15,-112.97 249.24,-105.1 238.78,-106.84 242.15,-112.97"/>
</g>
<!-- struct_cluster_ShiftRegister_REG_1 -->
<g id="node9" class="node">
<title>struct_cluster_ShiftRegister_REG_1</title>
<polygon fill="#ffe4b5" stroke="none" points="239.5,-128.75 239.5,-155.25 326.5,-155.25 326.5,-128.75 239.5,-128.75"/>
<polygon fill="none" stroke="black" points="239.5,-128.75 239.5,-155.25 257.75,-155.25 257.75,-128.75 239.5,-128.75"/>
<text text-anchor="start" x="244.5" y="-136.95" font-family="Times New Roman,serif" font-size="14.00">●</text>
<polygon fill="none" stroke="black" points="257.75,-128.75 257.75,-155.25 308.25,-155.25 308.25,-128.75 257.75,-128.75"/>
<text text-anchor="start" x="262.75" y="-136.95" font-family="Times New Roman,serif" font-size="14.00">REG_1</text>
<polygon fill="none" stroke="black" points="308.25,-128.75 308.25,-155.25 326.5,-155.25 326.5,-128.75 308.25,-128.75"/>
<text text-anchor="start" x="313.25" y="-136.95" font-family="Times New Roman,serif" font-size="14.00">●</text>
</g>
<!-- struct_cluster_ShiftRegister_REG&#45;&gt;struct_cluster_ShiftRegister_REG_1 -->
<g id="edge4" class="edge">
<title>struct_cluster_ShiftRegister_REG:out&#45;&gt;struct_cluster_ShiftRegister_REG_1:in</title>
<path fill="none" stroke="black" d="M188.5,-142C206.38,-142 213.47,-142 227.14,-142"/>
<polygon fill="black" stroke="black" points="226.99,-145.5 236.99,-142 226.99,-138.5 226.99,-145.5"/>
</g>
<!-- struct_cluster_ShiftRegister_REG_1&#45;&gt;cluster_ShiftRegister_io_out_2 -->
<g id="edge5" class="edge">
<title>struct_cluster_ShiftRegister_REG_1:out&#45;&gt;cluster_ShiftRegister_io_out_2</title>
<path fill="none" stroke="black" d="M327.5,-142C350.07,-142 350.98,-126.33 370.5,-115 373.46,-113.28 376.53,-111.54 379.64,-109.81"/>
<polygon fill="black" stroke="black" points="381.15,-112.97 388.24,-105.1 377.78,-106.84 381.15,-112.97"/>
</g>
<!-- struct_cluster_ShiftRegister_REG_2 -->
<g id="node10" class="node">
<title>struct_cluster_ShiftRegister_REG_2</title>
<polygon fill="#ffe4b5" stroke="none" points="378.5,-128.75 378.5,-155.25 465.5,-155.25 465.5,-128.75 378.5,-128.75"/>
<polygon fill="none" stroke="black" points="378.5,-128.75 378.5,-155.25 396.75,-155.25 396.75,-128.75 378.5,-128.75"/>
<text text-anchor="start" x="383.5" y="-136.95" font-family="Times New Roman,serif" font-size="14.00">●</text>
<polygon fill="none" stroke="black" points="396.75,-128.75 396.75,-155.25 447.25,-155.25 447.25,-128.75 396.75,-128.75"/>
<text text-anchor="start" x="401.75" y="-136.95" font-family="Times New Roman,serif" font-size="14.00">REG_2</text>
<polygon fill="none" stroke="black" points="447.25,-128.75 447.25,-155.25 465.5,-155.25 465.5,-128.75 447.25,-128.75"/>
<text text-anchor="start" x="452.25" y="-136.95" font-family="Times New Roman,serif" font-size="14.00">●</text>
</g>
<!-- struct_cluster_ShiftRegister_REG_1&#45;&gt;struct_cluster_ShiftRegister_REG_2 -->
<g id="edge7" class="edge">
<title>struct_cluster_ShiftRegister_REG_1:out&#45;&gt;struct_cluster_ShiftRegister_REG_2:in</title>
<path fill="none" stroke="black" d="M327.5,-142C345.38,-142 352.47,-142 366.14,-142"/>
<polygon fill="black" stroke="black" points="365.99,-145.5 375.99,-142 365.99,-138.5 365.99,-145.5"/>
</g>
<!-- struct_cluster_ShiftRegister_REG_2&#45;&gt;cluster_ShiftRegister_io_out_3 -->
<g id="edge1" class="edge">
<title>struct_cluster_ShiftRegister_REG_2:out&#45;&gt;cluster_ShiftRegister_io_out_3</title>
<path fill="none" stroke="black" d="M466.5,-142C476.67,-142 487.64,-142 497.92,-142"/>
<polygon fill="black" stroke="black" points="497.66,-145.5 507.66,-142 497.66,-138.5 497.66,-145.5"/>
</g>
</g>
</svg>
