<?xml version="1.0" encoding="UTF-8" standalone="no"?>
<?xml-stylesheet href="styles.css" type="text/css"?>
<!DOCTYPE svg PUBLIC "-//W3C//DTD SVG 1.1//EN"
 "http://www.w3.org/Graphics/SVG/1.1/DTD/svg11.dtd">
<!-- Generated by graphviz version 12.2.1 (20241206.2353)
 -->
<!-- Title: MyManyDynamicElementVecFir Pages: 1 -->
<svg width="1728pt" height="423pt"
 viewBox="0.00 0.00 1728.25 422.89" xmlns="http://www.w3.org/2000/svg" xmlns:xlink="http://www.w3.org/1999/xlink">
<g id="graph0" class="graph" transform="scale(1 1) rotate(0) translate(4 418.89)">
<title>MyManyDynamicElementVecFir</title>
<polygon fill="white" stroke="none" points="-4,4 -4,-418.89 1724.25,-418.89 1724.25,4 -4,4"/>
<g id="clust1" class="cluster">
<title>cluster_MyManyDynamicElementVecFir</title>
<polygon fill="#fff8dc" stroke="black" points="8,-11.89 8,-406.89 1712.25,-406.89 1712.25,-11.89 8,-11.89"/>
<text text-anchor="middle" x="860.12" y="-389.59" font-family="Times New Roman,serif" font-size="14.00">MyManyDynamicElementVecFir</text>
</g>
<!-- cluster_MyManyDynamicElementVecFir_clock -->
<g id="node1" class="node">
<title>cluster_MyManyDynamicElementVecFir_clock</title>
<polygon fill="#cccccc" stroke="black" points="70,-55.89 16,-55.89 16,-19.89 70,-19.89 70,-55.89"/>
<text text-anchor="middle" x="43" y="-32.84" font-family="Times New Roman,serif" font-size="14.00">clock</text>
</g>
<!-- cluster_MyManyDynamicElementVecFir_reset -->
<g id="node2" class="node">
<title>cluster_MyManyDynamicElementVecFir_reset</title>
<polygon fill="#cccccc" stroke="black" points="70,-109.89 16,-109.89 16,-73.89 70,-73.89 70,-109.89"/>
<text text-anchor="middle" x="43" y="-86.84" font-family="Times New Roman,serif" font-size="14.00">reset</text>
</g>
<!-- mux_1868417466 -->
<g id="node25" class="node">
<title>mux_1868417466</title>
<polygon fill="#afeeee" stroke="none" points="114,-130.39 114,-183.39 172.5,-183.39 172.5,-130.39 114,-130.39"/>
<polygon fill="none" stroke="black" points="114,-156.89 114,-183.39 132.25,-183.39 132.25,-156.89 114,-156.89"/>
<text text-anchor="start" x="119.75" y="-165.09" font-family="Times New Roman,serif" font-size="14.00">0</text>
<polygon fill="none" stroke="black" points="132.25,-130.39 132.25,-183.39 154.25,-183.39 154.25,-130.39 132.25,-130.39"/>
<text text-anchor="start" x="137.25" y="-151.84" font-family="Times New Roman,serif" font-size="14.00">a?</text>
<polygon fill="none" stroke="black" points="154.25,-130.39 154.25,-183.39 172.5,-183.39 172.5,-130.39 154.25,-130.39"/>
<text text-anchor="start" x="159.25" y="-151.84" font-family="Times New Roman,serif" font-size="14.00">●</text>
<polygon fill="none" stroke="black" points="114,-130.39 114,-156.89 132.25,-156.89 132.25,-130.39 114,-130.39"/>
<text text-anchor="start" x="119" y="-138.59" font-family="Times New Roman,serif" font-size="14.00">●</text>
</g>
<!-- cluster_MyManyDynamicElementVecFir_reset&#45;&gt;mux_1868417466 -->
<g id="edge19" class="edge">
<title>cluster_MyManyDynamicElementVecFir_reset&#45;&gt;mux_1868417466:select</title>
<path fill="none" stroke="black" d="M70.34,-91.15C95.83,-91.76 131.94,-96.59 141.08,-118.22"/>
<polygon fill="black" stroke="black" points="137.62,-118.75 142.96,-127.9 144.49,-117.42 137.62,-118.75"/>
</g>
<!-- mux_703200375 -->
<g id="node27" class="node">
<title>mux_703200375</title>
<polygon fill="#afeeee" stroke="none" points="494.62,-104.39 494.62,-157.39 553.12,-157.39 553.12,-104.39 494.62,-104.39"/>
<polygon fill="none" stroke="black" points="494.62,-130.89 494.62,-157.39 512.88,-157.39 512.88,-130.89 494.62,-130.89"/>
<text text-anchor="start" x="500.38" y="-139.09" font-family="Times New Roman,serif" font-size="14.00">0</text>
<polygon fill="none" stroke="black" points="512.88,-104.39 512.88,-157.39 534.88,-157.39 534.88,-104.39 512.88,-104.39"/>
<text text-anchor="start" x="517.88" y="-125.84" font-family="Times New Roman,serif" font-size="14.00">a?</text>
<polygon fill="none" stroke="black" points="534.88,-104.39 534.88,-157.39 553.12,-157.39 553.12,-104.39 534.88,-104.39"/>
<text text-anchor="start" x="539.88" y="-125.84" font-family="Times New Roman,serif" font-size="14.00">●</text>
<polygon fill="none" stroke="black" points="494.62,-104.39 494.62,-130.89 512.88,-130.89 512.88,-104.39 494.62,-104.39"/>
<text text-anchor="start" x="499.62" y="-112.59" font-family="Times New Roman,serif" font-size="14.00">●</text>
</g>
<!-- cluster_MyManyDynamicElementVecFir_reset&#45;&gt;mux_703200375 -->
<g id="edge30" class="edge">
<title>cluster_MyManyDynamicElementVecFir_reset&#45;&gt;mux_703200375:select</title>
<path fill="none" stroke="black" d="M70.48,-86.95C166.76,-69.63 494.02,-16.75 521.97,-92.41"/>
<polygon fill="black" stroke="black" points="518.46,-92.64 523.62,-101.9 525.35,-91.45 518.46,-92.64"/>
</g>
<!-- mux_803137972 -->
<g id="node29" class="node">
<title>mux_803137972</title>
<polygon fill="#afeeee" stroke="none" points="882.75,-68.39 882.75,-121.39 941.25,-121.39 941.25,-68.39 882.75,-68.39"/>
<polygon fill="none" stroke="black" points="882.75,-94.89 882.75,-121.39 901,-121.39 901,-94.89 882.75,-94.89"/>
<text text-anchor="start" x="888.5" y="-103.09" font-family="Times New Roman,serif" font-size="14.00">0</text>
<polygon fill="none" stroke="black" points="901,-68.39 901,-121.39 923,-121.39 923,-68.39 901,-68.39"/>
<text text-anchor="start" x="906" y="-89.84" font-family="Times New Roman,serif" font-size="14.00">a?</text>
<polygon fill="none" stroke="black" points="923,-68.39 923,-121.39 941.25,-121.39 941.25,-68.39 923,-68.39"/>
<text text-anchor="start" x="928" y="-89.84" font-family="Times New Roman,serif" font-size="14.00">●</text>
<polygon fill="none" stroke="black" points="882.75,-68.39 882.75,-94.89 901,-94.89 901,-68.39 882.75,-68.39"/>
<text text-anchor="start" x="887.75" y="-76.59" font-family="Times New Roman,serif" font-size="14.00">●</text>
</g>
<!-- cluster_MyManyDynamicElementVecFir_reset&#45;&gt;mux_803137972 -->
<g id="edge20" class="edge">
<title>cluster_MyManyDynamicElementVecFir_reset&#45;&gt;mux_803137972:select</title>
<path fill="none" stroke="black" d="M70.26,-77.52C110.7,-56.78 191.22,-20.89 264.38,-20.89 264.38,-20.89 264.38,-20.89 655.62,-20.89 767.47,-20.89 902.42,43.76 911.51,-56.15"/>
<polygon fill="black" stroke="black" points="908.01,-56.04 911.93,-65.88 915,-55.74 908.01,-56.04"/>
</g>
<!-- cluster_MyManyDynamicElementVecFir_io_in -->
<g id="node3" class="node">
<title>cluster_MyManyDynamicElementVecFir_io_in</title>
<polygon fill="#cccccc" stroke="black" points="292.38,-373.89 238.38,-373.89 238.38,-337.89 292.38,-337.89 292.38,-373.89"/>
<text text-anchor="middle" x="265.38" y="-350.84" font-family="Times New Roman,serif" font-size="14.00">io_in</text>
</g>
<!-- op_mul_34 -->
<g id="node14" class="node">
<title>op_mul_34</title>
<polygon fill="#d8bfd8" stroke="none" points="358.25,-317.39 358.25,-370.39 434,-370.39 434,-317.39 358.25,-317.39"/>
<polygon fill="none" stroke="black" points="358.25,-343.89 358.25,-370.39 376.5,-370.39 376.5,-343.89 358.25,-343.89"/>
<text text-anchor="start" x="363.25" y="-352.09" font-family="Times New Roman,serif" font-size="14.00">●</text>
<polygon fill="none" stroke="black" points="376.5,-317.39 376.5,-370.39 415.75,-370.39 415.75,-317.39 376.5,-317.39"/>
<text text-anchor="start" x="381.5" y="-338.84" font-family="Times New Roman,serif" font-size="14.00"> mul </text>
<polygon fill="none" stroke="black" points="415.75,-317.39 415.75,-370.39 434,-370.39 434,-317.39 415.75,-317.39"/>
<text text-anchor="start" x="420.75" y="-338.84" font-family="Times New Roman,serif" font-size="14.00">●</text>
<polygon fill="none" stroke="black" points="358.25,-317.39 358.25,-343.89 376.5,-343.89 376.5,-317.39 358.25,-317.39"/>
<text text-anchor="start" x="363.25" y="-325.59" font-family="Times New Roman,serif" font-size="14.00">●</text>
</g>
<!-- cluster_MyManyDynamicElementVecFir_io_in&#45;&gt;op_mul_34 -->
<g id="edge27" class="edge">
<title>cluster_MyManyDynamicElementVecFir_io_in&#45;&gt;op_mul_34:in1</title>
<path fill="none" stroke="black" d="M292.62,-356.44C307.65,-356.72 327.18,-357.02 345.81,-357.11"/>
<polygon fill="black" stroke="black" points="345.73,-360.61 355.74,-357.14 345.75,-353.61 345.73,-360.61"/>
</g>
<!-- mux_1853659045 -->
<g id="node26" class="node">
<title>mux_1853659045</title>
<polygon fill="#afeeee" stroke="none" points="366.88,-163.39 366.88,-216.39 425.38,-216.39 425.38,-163.39 366.88,-163.39"/>
<polygon fill="none" stroke="black" points="366.88,-189.89 366.88,-216.39 385.12,-216.39 385.12,-189.89 366.88,-189.89"/>
<text text-anchor="start" x="371.88" y="-198.09" font-family="Times New Roman,serif" font-size="14.00">●</text>
<polygon fill="none" stroke="black" points="385.12,-163.39 385.12,-216.39 407.12,-216.39 407.12,-163.39 385.12,-163.39"/>
<text text-anchor="start" x="390.12" y="-184.84" font-family="Times New Roman,serif" font-size="14.00">a?</text>
<polygon fill="none" stroke="black" points="407.12,-163.39 407.12,-216.39 425.38,-216.39 425.38,-163.39 407.12,-163.39"/>
<text text-anchor="start" x="412.12" y="-184.84" font-family="Times New Roman,serif" font-size="14.00">●</text>
<polygon fill="none" stroke="black" points="366.88,-163.39 366.88,-189.89 385.12,-189.89 385.12,-163.39 366.88,-163.39"/>
<text text-anchor="start" x="371.88" y="-171.59" font-family="Times New Roman,serif" font-size="14.00">●</text>
</g>
<!-- cluster_MyManyDynamicElementVecFir_io_in&#45;&gt;mux_1853659045 -->
<g id="edge24" class="edge">
<title>cluster_MyManyDynamicElementVecFir_io_in&#45;&gt;mux_1853659045:in1</title>
<path fill="none" stroke="black" d="M292.66,-345.36C300.46,-341.19 308.45,-335.73 314.25,-328.89 344.52,-293.17 318.89,-264.66 350.25,-229.89 354.78,-224.87 361.76,-225.25 367.31,-224.8"/>
<polygon fill="black" stroke="black" points="369.51,-227.52 374.85,-218.37 364.97,-222.2 369.51,-227.52"/>
</g>
<!-- cluster_MyManyDynamicElementVecFir_io_valid -->
<g id="node4" class="node">
<title>cluster_MyManyDynamicElementVecFir_io_valid</title>
<polygon fill="#cccccc" stroke="black" points="295.5,-124.89 235.25,-124.89 235.25,-88.89 295.5,-88.89 295.5,-124.89"/>
<text text-anchor="middle" x="265.38" y="-101.84" font-family="Times New Roman,serif" font-size="14.00">io_valid</text>
</g>
<!-- cluster_MyManyDynamicElementVecFir_io_valid&#45;&gt;mux_1853659045 -->
<g id="edge3" class="edge">
<title>cluster_MyManyDynamicElementVecFir_io_valid&#45;&gt;mux_1853659045:select</title>
<path fill="none" stroke="black" d="M295.85,-124.56C311.58,-133.41 331.51,-143.74 350.25,-150.89 364.37,-156.27 381.89,-149 390.63,-152.29"/>
<polygon fill="black" stroke="black" points="387.55,-153.95 395.4,-161.06 393.7,-150.6 387.55,-153.95"/>
</g>
<!-- mux_1815213218 -->
<g id="node28" class="node">
<title>mux_1815213218</title>
<polygon fill="#afeeee" stroke="none" points="366.88,-84.39 366.88,-137.39 425.38,-137.39 425.38,-84.39 366.88,-84.39"/>
<polygon fill="none" stroke="black" points="366.88,-110.89 366.88,-137.39 385.12,-137.39 385.12,-110.89 366.88,-110.89"/>
<text text-anchor="start" x="371.88" y="-119.09" font-family="Times New Roman,serif" font-size="14.00">●</text>
<polygon fill="none" stroke="black" points="385.12,-84.39 385.12,-137.39 407.12,-137.39 407.12,-84.39 385.12,-84.39"/>
<text text-anchor="start" x="390.12" y="-105.84" font-family="Times New Roman,serif" font-size="14.00">a?</text>
<polygon fill="none" stroke="black" points="407.12,-84.39 407.12,-137.39 425.38,-137.39 425.38,-84.39 407.12,-84.39"/>
<text text-anchor="start" x="412.12" y="-105.84" font-family="Times New Roman,serif" font-size="14.00">●</text>
<polygon fill="none" stroke="black" points="366.88,-84.39 366.88,-110.89 385.12,-110.89 385.12,-84.39 366.88,-84.39"/>
<text text-anchor="start" x="371.88" y="-92.59" font-family="Times New Roman,serif" font-size="14.00">●</text>
</g>
<!-- cluster_MyManyDynamicElementVecFir_io_valid&#45;&gt;mux_1815213218 -->
<g id="edge4" class="edge">
<title>cluster_MyManyDynamicElementVecFir_io_valid&#45;&gt;mux_1815213218:select</title>
<path fill="none" stroke="black" d="M295.82,-95.77C325.72,-85.11 370.12,-71.18 388.12,-75.26"/>
<polygon fill="black" stroke="black" points="385.55,-77.64 395.06,-82.31 390.54,-72.73 385.55,-77.64"/>
</g>
<!-- mux_133522559 -->
<g id="node30" class="node">
<title>mux_133522559</title>
<polygon fill="#afeeee" stroke="none" points="756.12,-51.39 756.12,-104.39 814.62,-104.39 814.62,-51.39 756.12,-51.39"/>
<polygon fill="none" stroke="black" points="756.12,-77.89 756.12,-104.39 774.38,-104.39 774.38,-77.89 756.12,-77.89"/>
<text text-anchor="start" x="761.12" y="-86.09" font-family="Times New Roman,serif" font-size="14.00">●</text>
<polygon fill="none" stroke="black" points="774.38,-51.39 774.38,-104.39 796.38,-104.39 796.38,-51.39 774.38,-51.39"/>
<text text-anchor="start" x="779.38" y="-72.84" font-family="Times New Roman,serif" font-size="14.00">a?</text>
<polygon fill="none" stroke="black" points="796.38,-51.39 796.38,-104.39 814.62,-104.39 814.62,-51.39 796.38,-51.39"/>
<text text-anchor="start" x="801.38" y="-72.84" font-family="Times New Roman,serif" font-size="14.00">●</text>
<polygon fill="none" stroke="black" points="756.12,-51.39 756.12,-77.89 774.38,-77.89 774.38,-51.39 756.12,-51.39"/>
<text text-anchor="start" x="761.12" y="-59.59" font-family="Times New Roman,serif" font-size="14.00">●</text>
</g>
<!-- cluster_MyManyDynamicElementVecFir_io_valid&#45;&gt;mux_133522559 -->
<g id="edge8" class="edge">
<title>cluster_MyManyDynamicElementVecFir_io_valid&#45;&gt;mux_133522559:select</title>
<path fill="none" stroke="black" d="M295.83,-91.67C311.55,-84.3 331.48,-76.16 350.25,-71.89 393.86,-61.98 728.25,-10.72 778.94,-41.13"/>
<polygon fill="black" stroke="black" points="775.93,-42.93 784.51,-49.15 781.68,-38.94 775.93,-42.93"/>
</g>
<!-- cluster_MyManyDynamicElementVecFir_io_consts_0 -->
<g id="node5" class="node">
<title>cluster_MyManyDynamicElementVecFir_io_consts_0</title>
<polygon fill="#cccccc" stroke="black" points="305.62,-319.89 225.12,-319.89 225.12,-283.89 305.62,-283.89 305.62,-319.89"/>
<text text-anchor="middle" x="265.38" y="-296.84" font-family="Times New Roman,serif" font-size="14.00">io_consts_0</text>
</g>
<!-- cluster_MyManyDynamicElementVecFir_io_consts_0&#45;&gt;op_mul_34 -->
<g id="edge7" class="edge">
<title>cluster_MyManyDynamicElementVecFir_io_consts_0&#45;&gt;op_mul_34:in2</title>
<path fill="none" stroke="black" d="M305.79,-320.1C318.16,-324.6 332.23,-328.56 346.15,-330.03"/>
<polygon fill="black" stroke="black" points="345.56,-333.5 355.74,-330.56 345.95,-326.52 345.56,-333.5"/>
</g>
<!-- cluster_MyManyDynamicElementVecFir_io_consts_1 -->
<g id="node6" class="node">
<title>cluster_MyManyDynamicElementVecFir_io_consts_1</title>
<polygon fill="#cccccc" stroke="black" points="436.38,-274.89 355.88,-274.89 355.88,-238.89 436.38,-238.89 436.38,-274.89"/>
<text text-anchor="middle" x="396.12" y="-251.84" font-family="Times New Roman,serif" font-size="14.00">io_consts_1</text>
</g>
<!-- op_mul_42 -->
<g id="node22" class="node">
<title>op_mul_42</title>
<polygon fill="#d8bfd8" stroke="none" points="486,-245.39 486,-298.39 561.75,-298.39 561.75,-245.39 486,-245.39"/>
<polygon fill="none" stroke="black" points="486,-271.89 486,-298.39 504.25,-298.39 504.25,-271.89 486,-271.89"/>
<text text-anchor="start" x="491" y="-280.09" font-family="Times New Roman,serif" font-size="14.00">●</text>
<polygon fill="none" stroke="black" points="504.25,-245.39 504.25,-298.39 543.5,-298.39 543.5,-245.39 504.25,-245.39"/>
<text text-anchor="start" x="509.25" y="-266.84" font-family="Times New Roman,serif" font-size="14.00"> mul </text>
<polygon fill="none" stroke="black" points="543.5,-245.39 543.5,-298.39 561.75,-298.39 561.75,-245.39 543.5,-245.39"/>
<text text-anchor="start" x="548.5" y="-266.84" font-family="Times New Roman,serif" font-size="14.00">●</text>
<polygon fill="none" stroke="black" points="486,-245.39 486,-271.89 504.25,-271.89 504.25,-245.39 486,-245.39"/>
<text text-anchor="start" x="491" y="-253.59" font-family="Times New Roman,serif" font-size="14.00">●</text>
</g>
<!-- cluster_MyManyDynamicElementVecFir_io_consts_1&#45;&gt;op_mul_42 -->
<g id="edge37" class="edge">
<title>cluster_MyManyDynamicElementVecFir_io_consts_1&#45;&gt;op_mul_42:in2</title>
<path fill="none" stroke="black" d="M436.49,-258.01C448.1,-258.27 461.06,-258.5 473.63,-258.6"/>
<polygon fill="black" stroke="black" points="473.47,-262.1 483.49,-258.63 473.5,-255.1 473.47,-262.1"/>
</g>
<!-- cluster_MyManyDynamicElementVecFir_io_consts_2 -->
<g id="node7" class="node">
<title>cluster_MyManyDynamicElementVecFir_io_consts_2</title>
<polygon fill="#cccccc" stroke="black" points="694.88,-169.89 614.38,-169.89 614.38,-133.89 694.88,-133.89 694.88,-169.89"/>
<text text-anchor="middle" x="654.62" y="-146.84" font-family="Times New Roman,serif" font-size="14.00">io_consts_2</text>
</g>
<!-- op_mul_43 -->
<g id="node23" class="node">
<title>op_mul_43</title>
<polygon fill="#d8bfd8" stroke="none" points="747.5,-138.39 747.5,-191.39 823.25,-191.39 823.25,-138.39 747.5,-138.39"/>
<polygon fill="none" stroke="black" points="747.5,-164.89 747.5,-191.39 765.75,-191.39 765.75,-164.89 747.5,-164.89"/>
<text text-anchor="start" x="752.5" y="-173.09" font-family="Times New Roman,serif" font-size="14.00">●</text>
<polygon fill="none" stroke="black" points="765.75,-138.39 765.75,-191.39 805,-191.39 805,-138.39 765.75,-138.39"/>
<text text-anchor="start" x="770.75" y="-159.84" font-family="Times New Roman,serif" font-size="14.00"> mul </text>
<polygon fill="none" stroke="black" points="805,-138.39 805,-191.39 823.25,-191.39 823.25,-138.39 805,-138.39"/>
<text text-anchor="start" x="810" y="-159.84" font-family="Times New Roman,serif" font-size="14.00">●</text>
<polygon fill="none" stroke="black" points="747.5,-138.39 747.5,-164.89 765.75,-164.89 765.75,-138.39 747.5,-138.39"/>
<text text-anchor="start" x="752.5" y="-146.59" font-family="Times New Roman,serif" font-size="14.00">●</text>
</g>
<!-- cluster_MyManyDynamicElementVecFir_io_consts_2&#45;&gt;op_mul_43 -->
<g id="edge10" class="edge">
<title>cluster_MyManyDynamicElementVecFir_io_consts_2&#45;&gt;op_mul_43:in2</title>
<path fill="none" stroke="black" d="M694.99,-151.73C707.48,-151.7 721.59,-151.66 735.21,-151.65"/>
<polygon fill="black" stroke="black" points="734.99,-155.15 744.99,-151.64 734.98,-148.15 734.99,-155.15"/>
</g>
<!-- cluster_MyManyDynamicElementVecFir_io_consts_3 -->
<g id="node8" class="node">
<title>cluster_MyManyDynamicElementVecFir_io_consts_3</title>
<polygon fill="#cccccc" stroke="black" points="1081.88,-58.89 1001.38,-58.89 1001.38,-22.89 1081.88,-22.89 1081.88,-58.89"/>
<text text-anchor="middle" x="1041.62" y="-35.84" font-family="Times New Roman,serif" font-size="14.00">io_consts_3</text>
</g>
<!-- op_mul_44 -->
<g id="node24" class="node">
<title>op_mul_44</title>
<polygon fill="#d8bfd8" stroke="none" points="1134.5,-55.39 1134.5,-108.39 1210.25,-108.39 1210.25,-55.39 1134.5,-55.39"/>
<polygon fill="none" stroke="black" points="1134.5,-81.89 1134.5,-108.39 1152.75,-108.39 1152.75,-81.89 1134.5,-81.89"/>
<text text-anchor="start" x="1139.5" y="-90.09" font-family="Times New Roman,serif" font-size="14.00">●</text>
<polygon fill="none" stroke="black" points="1152.75,-55.39 1152.75,-108.39 1192,-108.39 1192,-55.39 1152.75,-55.39"/>
<text text-anchor="start" x="1157.75" y="-76.84" font-family="Times New Roman,serif" font-size="14.00"> mul </text>
<polygon fill="none" stroke="black" points="1192,-55.39 1192,-108.39 1210.25,-108.39 1210.25,-55.39 1192,-55.39"/>
<text text-anchor="start" x="1197" y="-76.84" font-family="Times New Roman,serif" font-size="14.00">●</text>
<polygon fill="none" stroke="black" points="1134.5,-55.39 1134.5,-81.89 1152.75,-81.89 1152.75,-55.39 1134.5,-55.39"/>
<text text-anchor="start" x="1139.5" y="-63.59" font-family="Times New Roman,serif" font-size="14.00">●</text>
</g>
<!-- cluster_MyManyDynamicElementVecFir_io_consts_3&#45;&gt;op_mul_44 -->
<g id="edge16" class="edge">
<title>cluster_MyManyDynamicElementVecFir_io_consts_3&#45;&gt;op_mul_44:in2</title>
<path fill="none" stroke="black" d="M1082.1,-58.46C1094.35,-62.77 1108.26,-66.56 1122.02,-68.01"/>
<polygon fill="black" stroke="black" points="1121.81,-71.5 1131.99,-68.56 1122.2,-64.51 1121.81,-71.5"/>
</g>
<!-- cluster_MyManyDynamicElementVecFir_io_out -->
<g id="node9" class="node">
<title>cluster_MyManyDynamicElementVecFir_io_out</title>
<polygon fill="#e0ffff" stroke="black" points="1704.25,-113.89 1650.25,-113.89 1650.25,-77.89 1704.25,-77.89 1704.25,-113.89"/>
<text text-anchor="middle" x="1677.25" y="-90.84" font-family="Times New Roman,serif" font-size="14.00">io_out</text>
</g>
<!-- struct_cluster_MyManyDynamicElementVecFir_taps_1 -->
<g id="node10" class="node">
<title>struct_cluster_MyManyDynamicElementVecFir_taps_1</title>
<polygon fill="#ffe4b5" stroke="none" points="224.5,-167.64 224.5,-194.14 306.25,-194.14 306.25,-167.64 224.5,-167.64"/>
<polygon fill="none" stroke="black" points="224.5,-167.64 224.5,-194.14 242.75,-194.14 242.75,-167.64 224.5,-167.64"/>
<text text-anchor="start" x="229.5" y="-175.84" font-family="Times New Roman,serif" font-size="14.00">●</text>
<polygon fill="none" stroke="black" points="242.75,-167.64 242.75,-194.14 288,-194.14 288,-167.64 242.75,-167.64"/>
<text text-anchor="start" x="247.75" y="-175.84" font-family="Times New Roman,serif" font-size="14.00">taps_1</text>
<polygon fill="none" stroke="black" points="288,-167.64 288,-194.14 306.25,-194.14 306.25,-167.64 288,-167.64"/>
<text text-anchor="start" x="293" y="-175.84" font-family="Times New Roman,serif" font-size="14.00">●</text>
</g>
<!-- struct_cluster_MyManyDynamicElementVecFir_taps_1&#45;&gt;op_mul_42 -->
<g id="edge13" class="edge">
<title>struct_cluster_MyManyDynamicElementVecFir_taps_1:out&#45;&gt;op_mul_42:in1</title>
<path fill="none" stroke="black" d="M297.12,-195.14C297.12,-241.11 310.36,-261.03 350.25,-283.89 398.76,-311.69 421.94,-288.67 473.54,-285.49"/>
<polygon fill="black" stroke="black" points="473.6,-288.99 483.49,-285.19 473.38,-282 473.6,-288.99"/>
</g>
<!-- struct_cluster_MyManyDynamicElementVecFir_taps_1&#45;&gt;mux_1853659045 -->
<g id="edge6" class="edge">
<title>struct_cluster_MyManyDynamicElementVecFir_taps_1:out&#45;&gt;mux_1853659045:in2</title>
<path fill="none" stroke="black" d="M307.25,-180.89C329.09,-180.89 337.13,-177.92 354.44,-176.95"/>
<polygon fill="black" stroke="black" points="354.46,-180.45 364.36,-176.68 354.27,-173.45 354.46,-180.45"/>
</g>
<!-- struct_cluster_MyManyDynamicElementVecFir_taps_1&#45;&gt;mux_1815213218 -->
<g id="edge21" class="edge">
<title>struct_cluster_MyManyDynamicElementVecFir_taps_1:out&#45;&gt;mux_1815213218:in1</title>
<path fill="none" stroke="black" d="M307.25,-180.89C339.12,-180.89 332.24,-137.05 354.73,-126.44"/>
<polygon fill="black" stroke="black" points="355.3,-129.89 364.39,-124.45 353.89,-123.03 355.3,-129.89"/>
</g>
<!-- struct_cluster_MyManyDynamicElementVecFir_taps_2 -->
<g id="node11" class="node">
<title>struct_cluster_MyManyDynamicElementVecFir_taps_2</title>
<polygon fill="#ffe4b5" stroke="none" points="613.75,-84.64 613.75,-111.14 695.5,-111.14 695.5,-84.64 613.75,-84.64"/>
<polygon fill="none" stroke="black" points="613.75,-84.64 613.75,-111.14 632,-111.14 632,-84.64 613.75,-84.64"/>
<text text-anchor="start" x="618.75" y="-92.84" font-family="Times New Roman,serif" font-size="14.00">●</text>
<polygon fill="none" stroke="black" points="632,-84.64 632,-111.14 677.25,-111.14 677.25,-84.64 632,-84.64"/>
<text text-anchor="start" x="637" y="-92.84" font-family="Times New Roman,serif" font-size="14.00">taps_2</text>
<polygon fill="none" stroke="black" points="677.25,-84.64 677.25,-111.14 695.5,-111.14 695.5,-84.64 677.25,-84.64"/>
<text text-anchor="start" x="682.25" y="-92.84" font-family="Times New Roman,serif" font-size="14.00">●</text>
</g>
<!-- struct_cluster_MyManyDynamicElementVecFir_taps_2&#45;&gt;op_mul_43 -->
<g id="edge17" class="edge">
<title>struct_cluster_MyManyDynamicElementVecFir_taps_2:out&#45;&gt;op_mul_43:in1</title>
<path fill="none" stroke="black" d="M696.5,-97.89C734.09,-97.89 710.81,-162.11 735.56,-175.65"/>
<polygon fill="black" stroke="black" points="734.5,-179 745.02,-177.8 736.05,-172.17 734.5,-179"/>
</g>
<!-- struct_cluster_MyManyDynamicElementVecFir_taps_2&#45;&gt;mux_1815213218 -->
<g id="edge9" class="edge">
<title>struct_cluster_MyManyDynamicElementVecFir_taps_2:out&#45;&gt;mux_1815213218:in2</title>
<path fill="none" stroke="black" d="M686.38,-83.64C686.38,-68.28 440.18,-66.41 386.33,-78.36"/>
<polygon fill="black" stroke="black" points="384.82,-75.2 377.36,-82.73 387.88,-81.49 384.82,-75.2"/>
</g>
<!-- struct_cluster_MyManyDynamicElementVecFir_taps_2&#45;&gt;mux_133522559 -->
<g id="edge12" class="edge">
<title>struct_cluster_MyManyDynamicElementVecFir_taps_2:out&#45;&gt;mux_133522559:in1</title>
<path fill="none" stroke="black" d="M696.5,-97.89C718.42,-97.89 726.33,-93.17 743.66,-91.63"/>
<polygon fill="black" stroke="black" points="743.77,-95.12 753.61,-91.2 743.47,-88.13 743.77,-95.12"/>
</g>
<!-- struct_cluster_MyManyDynamicElementVecFir_taps_3 -->
<g id="node12" class="node">
<title>struct_cluster_MyManyDynamicElementVecFir_taps_3</title>
<polygon fill="#ffe4b5" stroke="none" points="1000.75,-81.64 1000.75,-108.14 1082.5,-108.14 1082.5,-81.64 1000.75,-81.64"/>
<polygon fill="none" stroke="black" points="1000.75,-81.64 1000.75,-108.14 1019,-108.14 1019,-81.64 1000.75,-81.64"/>
<text text-anchor="start" x="1005.75" y="-89.84" font-family="Times New Roman,serif" font-size="14.00">●</text>
<polygon fill="none" stroke="black" points="1019,-81.64 1019,-108.14 1064.25,-108.14 1064.25,-81.64 1019,-81.64"/>
<text text-anchor="start" x="1024" y="-89.84" font-family="Times New Roman,serif" font-size="14.00">taps_3</text>
<polygon fill="none" stroke="black" points="1064.25,-81.64 1064.25,-108.14 1082.5,-108.14 1082.5,-81.64 1064.25,-81.64"/>
<text text-anchor="start" x="1069.25" y="-89.84" font-family="Times New Roman,serif" font-size="14.00">●</text>
</g>
<!-- struct_cluster_MyManyDynamicElementVecFir_taps_3&#45;&gt;op_mul_44 -->
<g id="edge32" class="edge">
<title>struct_cluster_MyManyDynamicElementVecFir_taps_3:out&#45;&gt;op_mul_44:in1</title>
<path fill="none" stroke="black" d="M1083.5,-94.89C1101.38,-94.89 1108.47,-95.05 1122.14,-95.12"/>
<polygon fill="black" stroke="black" points="1121.98,-98.62 1131.99,-95.14 1121.99,-91.62 1121.98,-98.62"/>
</g>
<!-- struct_cluster_MyManyDynamicElementVecFir_taps_3&#45;&gt;mux_133522559 -->
<g id="edge34" class="edge">
<title>struct_cluster_MyManyDynamicElementVecFir_taps_3:out&#45;&gt;mux_133522559:in2</title>
<path fill="none" stroke="black" d="M1073.38,-80.64C1073.38,-62.5 1010.37,-72.19 992.75,-67.89 976.37,-63.89 973.35,-58.87 956.75,-55.89 898.04,-45.35 882.25,-52.91 822.62,-51.39 803.1,-50.89 779.84,-35.62 770.01,-39.94"/>
<polygon fill="black" stroke="black" points="766.84,-38.46 765.88,-49.01 773.21,-41.36 766.84,-38.46"/>
</g>
<!-- cluster_MyManyDynamicElementVecFir__T -->
<g id="node13" class="node">
<title>cluster_MyManyDynamicElementVecFir__T</title>
<polygon fill="none" stroke="black" points="550.88,-359.89 496.88,-359.89 496.88,-323.89 550.88,-323.89 550.88,-359.89"/>
<text text-anchor="middle" x="523.88" y="-336.84" font-family="Times New Roman,serif" font-size="14.00">_T</text>
</g>
<!-- op_add_41 -->
<g id="node21" class="node">
<title>op_add_41</title>
<polygon fill="#d8bfd8" stroke="none" points="617.88,-258.39 617.88,-311.39 691.38,-311.39 691.38,-258.39 617.88,-258.39"/>
<polygon fill="none" stroke="black" points="617.88,-284.89 617.88,-311.39 636.12,-311.39 636.12,-284.89 617.88,-284.89"/>
<text text-anchor="start" x="622.88" y="-293.09" font-family="Times New Roman,serif" font-size="14.00">●</text>
<polygon fill="none" stroke="black" points="636.12,-258.39 636.12,-311.39 673.12,-311.39 673.12,-258.39 636.12,-258.39"/>
<text text-anchor="start" x="641.12" y="-279.84" font-family="Times New Roman,serif" font-size="14.00"> add </text>
<polygon fill="none" stroke="black" points="673.12,-258.39 673.12,-311.39 691.38,-311.39 691.38,-258.39 673.12,-258.39"/>
<text text-anchor="start" x="678.12" y="-279.84" font-family="Times New Roman,serif" font-size="14.00">●</text>
<polygon fill="none" stroke="black" points="617.88,-258.39 617.88,-284.89 636.12,-284.89 636.12,-258.39 617.88,-258.39"/>
<text text-anchor="start" x="622.88" y="-266.59" font-family="Times New Roman,serif" font-size="14.00">●</text>
</g>
<!-- cluster_MyManyDynamicElementVecFir__T&#45;&gt;op_add_41 -->
<g id="edge33" class="edge">
<title>cluster_MyManyDynamicElementVecFir__T&#45;&gt;op_add_41:in1</title>
<path fill="none" stroke="black" d="M551,-326.34C568.29,-316.52 590.51,-304.83 605.86,-300.19"/>
<polygon fill="black" stroke="black" points="606.2,-303.69 615.39,-298.42 604.92,-296.8 606.2,-303.69"/>
</g>
<!-- op_mul_34&#45;&gt;cluster_MyManyDynamicElementVecFir__T -->
<g id="edge18" class="edge">
<title>op_mul_34:out&#45;&gt;cluster_MyManyDynamicElementVecFir__T</title>
<path fill="none" stroke="black" d="M435,-343.89C451.54,-343.89 469.82,-343.53 485.41,-343.12"/>
<polygon fill="black" stroke="black" points="485.32,-346.62 495.22,-342.84 485.12,-339.63 485.32,-346.62"/>
</g>
<!-- op_bits_35 -->
<g id="node15" class="node">
<title>op_bits_35</title>
<polygon fill="#d8bfd8" stroke="none" points="1511,-69.39 1511,-122.39 1606.25,-122.39 1606.25,-69.39 1511,-69.39"/>
<polygon fill="none" stroke="black" points="1511,-95.89 1511,-122.39 1551,-122.39 1551,-95.89 1511,-95.89"/>
<text text-anchor="start" x="1526.88" y="-104.09" font-family="Times New Roman,serif" font-size="14.00">●</text>
<polygon fill="none" stroke="black" points="1551,-69.39 1551,-122.39 1588,-122.39 1588,-69.39 1551,-69.39"/>
<text text-anchor="start" x="1556" y="-90.84" font-family="Times New Roman,serif" font-size="14.00"> bits </text>
<polygon fill="none" stroke="black" points="1588,-69.39 1588,-122.39 1606.25,-122.39 1606.25,-69.39 1588,-69.39"/>
<text text-anchor="start" x="1593" y="-90.84" font-family="Times New Roman,serif" font-size="14.00">●</text>
<polygon fill="none" stroke="black" points="1511,-69.39 1511,-95.89 1551,-95.89 1551,-69.39 1511,-69.39"/>
<text text-anchor="start" x="1516" y="-77.59" font-family="Times New Roman,serif" font-size="14.00">(7, 0)</text>
</g>
<!-- op_bits_35&#45;&gt;cluster_MyManyDynamicElementVecFir_io_out -->
<g id="edge5" class="edge">
<title>op_bits_35:out&#45;&gt;cluster_MyManyDynamicElementVecFir_io_out</title>
<path fill="none" stroke="black" d="M1607.25,-95.89C1617.41,-95.89 1628.41,-95.89 1638.58,-95.89"/>
<polygon fill="black" stroke="black" points="1638.52,-99.39 1648.52,-95.89 1638.52,-92.39 1638.52,-99.39"/>
</g>
<!-- op_tail_36 -->
<g id="node16" class="node">
<title>op_tail_36</title>
<polygon fill="#d8bfd8" stroke="none" points="1387.75,-82.39 1387.75,-135.39 1459,-135.39 1459,-82.39 1387.75,-82.39"/>
<polygon fill="none" stroke="black" points="1387.75,-108.89 1387.75,-135.39 1406,-135.39 1406,-108.89 1387.75,-108.89"/>
<text text-anchor="start" x="1392.75" y="-117.09" font-family="Times New Roman,serif" font-size="14.00">●</text>
<polygon fill="none" stroke="black" points="1406,-82.39 1406,-135.39 1440.75,-135.39 1440.75,-82.39 1406,-82.39"/>
<text text-anchor="start" x="1411" y="-103.84" font-family="Times New Roman,serif" font-size="14.00"> tail </text>
<polygon fill="none" stroke="black" points="1440.75,-82.39 1440.75,-135.39 1459,-135.39 1459,-82.39 1440.75,-82.39"/>
<text text-anchor="start" x="1445.75" y="-103.84" font-family="Times New Roman,serif" font-size="14.00">●</text>
<polygon fill="none" stroke="black" points="1387.75,-82.39 1387.75,-108.89 1406,-108.89 1406,-82.39 1387.75,-82.39"/>
<text text-anchor="start" x="1393.5" y="-90.59" font-family="Times New Roman,serif" font-size="14.00">1</text>
</g>
<!-- op_tail_36&#45;&gt;op_bits_35 -->
<g id="edge26" class="edge">
<title>op_tail_36:out&#45;&gt;op_bits_35:in1</title>
<path fill="none" stroke="black" d="M1460,-108.89C1477.88,-108.89 1484.97,-109.05 1498.64,-109.12"/>
<polygon fill="black" stroke="black" points="1498.48,-112.62 1508.49,-109.14 1498.49,-105.62 1498.48,-112.62"/>
</g>
<!-- op_add_37 -->
<g id="node17" class="node">
<title>op_add_37</title>
<polygon fill="#d8bfd8" stroke="none" points="1262.25,-95.39 1262.25,-148.39 1335.75,-148.39 1335.75,-95.39 1262.25,-95.39"/>
<polygon fill="none" stroke="black" points="1262.25,-121.89 1262.25,-148.39 1280.5,-148.39 1280.5,-121.89 1262.25,-121.89"/>
<text text-anchor="start" x="1267.25" y="-130.09" font-family="Times New Roman,serif" font-size="14.00">●</text>
<polygon fill="none" stroke="black" points="1280.5,-95.39 1280.5,-148.39 1317.5,-148.39 1317.5,-95.39 1280.5,-95.39"/>
<text text-anchor="start" x="1285.5" y="-116.84" font-family="Times New Roman,serif" font-size="14.00"> add </text>
<polygon fill="none" stroke="black" points="1317.5,-95.39 1317.5,-148.39 1335.75,-148.39 1335.75,-95.39 1317.5,-95.39"/>
<text text-anchor="start" x="1322.5" y="-116.84" font-family="Times New Roman,serif" font-size="14.00">●</text>
<polygon fill="none" stroke="black" points="1262.25,-95.39 1262.25,-121.89 1280.5,-121.89 1280.5,-95.39 1262.25,-95.39"/>
<text text-anchor="start" x="1267.25" y="-103.59" font-family="Times New Roman,serif" font-size="14.00">●</text>
</g>
<!-- op_add_37&#45;&gt;op_tail_36 -->
<g id="edge36" class="edge">
<title>op_add_37:out&#45;&gt;op_tail_36:in1</title>
<path fill="none" stroke="black" d="M1336.75,-121.89C1354.63,-121.89 1361.72,-122.05 1375.39,-122.12"/>
<polygon fill="black" stroke="black" points="1375.23,-125.62 1385.24,-122.14 1375.24,-118.62 1375.23,-125.62"/>
</g>
<!-- op_tail_38 -->
<g id="node18" class="node">
<title>op_tail_38</title>
<polygon fill="#d8bfd8" stroke="none" points="1136.75,-136.39 1136.75,-189.39 1208,-189.39 1208,-136.39 1136.75,-136.39"/>
<polygon fill="none" stroke="black" points="1136.75,-162.89 1136.75,-189.39 1155,-189.39 1155,-162.89 1136.75,-162.89"/>
<text text-anchor="start" x="1141.75" y="-171.09" font-family="Times New Roman,serif" font-size="14.00">●</text>
<polygon fill="none" stroke="black" points="1155,-136.39 1155,-189.39 1189.75,-189.39 1189.75,-136.39 1155,-136.39"/>
<text text-anchor="start" x="1160" y="-157.84" font-family="Times New Roman,serif" font-size="14.00"> tail </text>
<polygon fill="none" stroke="black" points="1189.75,-136.39 1189.75,-189.39 1208,-189.39 1208,-136.39 1189.75,-136.39"/>
<text text-anchor="start" x="1194.75" y="-157.84" font-family="Times New Roman,serif" font-size="14.00">●</text>
<polygon fill="none" stroke="black" points="1136.75,-136.39 1136.75,-162.89 1155,-162.89 1155,-136.39 1136.75,-136.39"/>
<text text-anchor="start" x="1142.5" y="-144.59" font-family="Times New Roman,serif" font-size="14.00">1</text>
</g>
<!-- op_tail_38&#45;&gt;op_add_37 -->
<g id="edge14" class="edge">
<title>op_tail_38:out&#45;&gt;op_add_37:in1</title>
<path fill="none" stroke="black" d="M1209,-162.89C1230.98,-162.89 1234.35,-143.5 1250.22,-137.14"/>
<polygon fill="black" stroke="black" points="1250.54,-140.64 1259.76,-135.41 1249.3,-133.75 1250.54,-140.64"/>
</g>
<!-- op_add_39 -->
<g id="node19" class="node">
<title>op_add_39</title>
<polygon fill="#d8bfd8" stroke="none" points="875.25,-151.39 875.25,-204.39 948.75,-204.39 948.75,-151.39 875.25,-151.39"/>
<polygon fill="none" stroke="black" points="875.25,-177.89 875.25,-204.39 893.5,-204.39 893.5,-177.89 875.25,-177.89"/>
<text text-anchor="start" x="880.25" y="-186.09" font-family="Times New Roman,serif" font-size="14.00">●</text>
<polygon fill="none" stroke="black" points="893.5,-151.39 893.5,-204.39 930.5,-204.39 930.5,-151.39 893.5,-151.39"/>
<text text-anchor="start" x="898.5" y="-172.84" font-family="Times New Roman,serif" font-size="14.00"> add </text>
<polygon fill="none" stroke="black" points="930.5,-151.39 930.5,-204.39 948.75,-204.39 948.75,-151.39 930.5,-151.39"/>
<text text-anchor="start" x="935.5" y="-172.84" font-family="Times New Roman,serif" font-size="14.00">●</text>
<polygon fill="none" stroke="black" points="875.25,-151.39 875.25,-177.89 893.5,-177.89 893.5,-151.39 875.25,-151.39"/>
<text text-anchor="start" x="880.25" y="-159.59" font-family="Times New Roman,serif" font-size="14.00">●</text>
</g>
<!-- op_add_39&#45;&gt;op_tail_38 -->
<g id="edge23" class="edge">
<title>op_add_39:out&#45;&gt;op_tail_38:in1</title>
<path fill="none" stroke="black" d="M949.75,-177.89C1028.55,-177.89 1051.01,-176.3 1124.52,-176.15"/>
<polygon fill="black" stroke="black" points="1124.24,-179.65 1134.24,-176.14 1124.23,-172.65 1124.24,-179.65"/>
</g>
<!-- op_tail_40 -->
<g id="node20" class="node">
<title>op_tail_40</title>
<polygon fill="#d8bfd8" stroke="none" points="749.75,-232.39 749.75,-285.39 821,-285.39 821,-232.39 749.75,-232.39"/>
<polygon fill="none" stroke="black" points="749.75,-258.89 749.75,-285.39 768,-285.39 768,-258.89 749.75,-258.89"/>
<text text-anchor="start" x="754.75" y="-267.09" font-family="Times New Roman,serif" font-size="14.00">●</text>
<polygon fill="none" stroke="black" points="768,-232.39 768,-285.39 802.75,-285.39 802.75,-232.39 768,-232.39"/>
<text text-anchor="start" x="773" y="-253.84" font-family="Times New Roman,serif" font-size="14.00"> tail </text>
<polygon fill="none" stroke="black" points="802.75,-232.39 802.75,-285.39 821,-285.39 821,-232.39 802.75,-232.39"/>
<text text-anchor="start" x="807.75" y="-253.84" font-family="Times New Roman,serif" font-size="14.00">●</text>
<polygon fill="none" stroke="black" points="749.75,-232.39 749.75,-258.89 768,-258.89 768,-232.39 749.75,-232.39"/>
<text text-anchor="start" x="755.5" y="-240.59" font-family="Times New Roman,serif" font-size="14.00">1</text>
</g>
<!-- op_tail_40&#45;&gt;op_add_39 -->
<g id="edge31" class="edge">
<title>op_tail_40:out&#45;&gt;op_add_39:in1</title>
<path fill="none" stroke="black" d="M811.88,-231.39C811.88,-217.86 842.75,-199.44 862.95,-193.26"/>
<polygon fill="black" stroke="black" points="863.58,-196.7 872.76,-191.42 862.29,-189.82 863.58,-196.7"/>
</g>
<!-- op_add_41&#45;&gt;op_tail_40 -->
<g id="edge28" class="edge">
<title>op_add_41:out&#45;&gt;op_tail_40:in1</title>
<path fill="none" stroke="black" d="M692.38,-284.89C713.85,-284.89 720.86,-275.98 737.59,-273.06"/>
<polygon fill="black" stroke="black" points="737.56,-276.57 747.24,-272.26 736.99,-269.6 737.56,-276.57"/>
</g>
<!-- op_mul_42&#45;&gt;op_add_41 -->
<g id="edge29" class="edge">
<title>op_mul_42:out&#45;&gt;op_add_41:in2</title>
<path fill="none" stroke="black" d="M562.75,-271.89C582.48,-271.89 590.08,-271.72 605.45,-271.66"/>
<polygon fill="black" stroke="black" points="605.37,-275.16 615.36,-271.64 605.35,-268.16 605.37,-275.16"/>
</g>
<!-- op_mul_43&#45;&gt;op_add_39 -->
<g id="edge15" class="edge">
<title>op_mul_43:out&#45;&gt;op_add_39:in2</title>
<path fill="none" stroke="black" d="M824.25,-164.89C842.13,-164.89 849.22,-164.73 862.89,-164.67"/>
<polygon fill="black" stroke="black" points="862.74,-168.17 872.74,-164.64 862.73,-161.17 862.74,-168.17"/>
</g>
<!-- op_mul_44&#45;&gt;op_add_37 -->
<g id="edge38" class="edge">
<title>op_mul_44:out&#45;&gt;op_add_37:in2</title>
<path fill="none" stroke="black" d="M1211.25,-81.89C1232.12,-81.89 1235.43,-100.24 1250.26,-106.54"/>
<polygon fill="black" stroke="black" points="1249.28,-109.92 1259.76,-108.36 1250.6,-103.04 1249.28,-109.92"/>
</g>
<!-- mux_1868417466&#45;&gt;struct_cluster_MyManyDynamicElementVecFir_taps_1 -->
<g id="edge2" class="edge">
<title>mux_1868417466:out&#45;&gt;struct_cluster_MyManyDynamicElementVecFir_taps_1:in</title>
<path fill="none" stroke="black" d="M173.5,-156.89C193.72,-156.89 197.83,-173.04 212.25,-178.84"/>
<polygon fill="black" stroke="black" points="211.55,-182.27 222.01,-180.62 212.8,-175.39 211.55,-182.27"/>
</g>
<!-- mux_1853659045&#45;&gt;mux_1868417466 -->
<g id="edge11" class="edge">
<title>mux_1853659045:out&#45;&gt;mux_1868417466:in2</title>
<path fill="none" stroke="black" d="M416.25,-162.39C416.25,-159.09 183.79,-130.64 180.5,-130.39 160.83,-128.89 137.27,-113.86 127.6,-118.92"/>
<polygon fill="black" stroke="black" points="124.43,-117.43 123.72,-128 130.87,-120.18 124.43,-117.43"/>
</g>
<!-- mux_703200375&#45;&gt;struct_cluster_MyManyDynamicElementVecFir_taps_2 -->
<g id="edge22" class="edge">
<title>mux_703200375:out&#45;&gt;struct_cluster_MyManyDynamicElementVecFir_taps_2:in</title>
<path fill="none" stroke="black" d="M554.12,-130.89C579.7,-130.89 582.54,-106.74 601.55,-99.76"/>
<polygon fill="black" stroke="black" points="601.97,-103.24 611.26,-98.14 600.82,-96.33 601.97,-103.24"/>
</g>
<!-- mux_1815213218&#45;&gt;mux_703200375 -->
<g id="edge35" class="edge">
<title>mux_1815213218:out&#45;&gt;mux_703200375:in2</title>
<path fill="none" stroke="black" d="M426.38,-110.89C452.19,-110.89 461.12,-115.88 482.18,-117.28"/>
<polygon fill="black" stroke="black" points="482.01,-120.77 492.11,-117.59 482.23,-113.78 482.01,-120.77"/>
</g>
<!-- mux_803137972&#45;&gt;struct_cluster_MyManyDynamicElementVecFir_taps_3 -->
<g id="edge1" class="edge">
<title>mux_803137972:out&#45;&gt;struct_cluster_MyManyDynamicElementVecFir_taps_3:in</title>
<path fill="none" stroke="black" d="M942.25,-94.89C963.61,-94.89 971.58,-94.89 988.55,-94.89"/>
<polygon fill="black" stroke="black" points="988.24,-98.39 998.24,-94.89 988.24,-91.39 988.24,-98.39"/>
</g>
<!-- mux_133522559&#45;&gt;mux_803137972 -->
<g id="edge25" class="edge">
<title>mux_133522559:out&#45;&gt;mux_803137972:in2</title>
<path fill="none" stroke="black" d="M815.62,-77.89C840.81,-77.89 849.75,-80.63 870.24,-81.43"/>
<polygon fill="black" stroke="black" points="870.17,-84.93 880.24,-81.61 870.3,-77.93 870.17,-84.93"/>
</g>
</g>
</svg>
